<mxfile host="app.diagrams.net" modified="2022-07-07T10:32:04.398Z" agent="5.0 (Windows NT 10.0; Win64; x64) AppleWebKit/537.36 (KHTML, like Gecko) Chrome/103.0.0.0 Safari/537.36" etag="DGjtk8_NsJq_MvLkCjps" version="20.0.4" type="github" pages="2">
  <diagram id="vyPTiAJM-5Oy2_5CqBcM" name="Page-1">
    <mxGraphModel dx="2523" dy="2034" grid="1" gridSize="10" guides="1" tooltips="1" connect="1" arrows="1" fold="1" page="1" pageScale="1" pageWidth="850" pageHeight="1100" math="0" shadow="0">
      <root>
        <mxCell id="0" />
        <mxCell id="1" parent="0" />
        <mxCell id="cnmCpfoTb3ZLm3PdTzCf-40" value="" style="rounded=0;whiteSpace=wrap;html=1;dashed=1;strokeColor=#B3B3B3;strokeWidth=3;" parent="1" vertex="1">
          <mxGeometry x="-830" y="-920" width="2500" height="2910" as="geometry" />
        </mxCell>
        <mxCell id="6gDZWx-ZATqykIUsGlyi-1" value="&lt;font style=&quot;font-size: 14px&quot;&gt;Web User&lt;/font&gt;" style="points=[[0.35,0,0],[0.98,0.51,0],[1,0.71,0],[0.67,1,0],[0,0.795,0],[0,0.65,0]];verticalLabelPosition=bottom;html=1;verticalAlign=top;aspect=fixed;align=center;pointerEvents=1;shape=mxgraph.cisco19.user;strokeColor=none;shadow=0;dashed=1;opacity=50;fillColor=#FF6666;" parent="1" vertex="1">
          <mxGeometry x="575" y="-620" width="50" height="50" as="geometry" />
        </mxCell>
        <mxCell id="pLBHm1Zxr1Tqt-ue2brr-2" value="&lt;font style=&quot;font-size: 20px&quot;&gt;Apollo Gateway&amp;nbsp;&lt;/font&gt;" style="rounded=0;whiteSpace=wrap;html=1;" parent="1" vertex="1">
          <mxGeometry x="400" y="120" width="400" height="110" as="geometry" />
        </mxCell>
        <mxCell id="pLBHm1Zxr1Tqt-ue2brr-137" value="" style="group" parent="1" vertex="1" connectable="0">
          <mxGeometry x="449" y="439" width="296.29" height="320" as="geometry" />
        </mxCell>
        <mxCell id="pLBHm1Zxr1Tqt-ue2brr-138" value="" style="verticalLabelPosition=middle;verticalAlign=middle;html=1;shape=mxgraph.basic.polygon;polyCoords=[[0.25,0],[0.75,0],[1,0.25],[1,0.75],[0.75,1],[0.25,1],[0,0.75],[0,0.25]];polyline=0;fillColor=#ffffff;fontSize=12;align=center;labelPosition=center;" parent="pLBHm1Zxr1Tqt-ue2brr-137" vertex="1">
          <mxGeometry y="20" width="296.29" height="300" as="geometry" />
        </mxCell>
        <mxCell id="pLBHm1Zxr1Tqt-ue2brr-144" value="" style="group" parent="pLBHm1Zxr1Tqt-ue2brr-137" vertex="1" connectable="0">
          <mxGeometry x="130" width="59" height="44.11999999999999" as="geometry" />
        </mxCell>
        <mxCell id="pLBHm1Zxr1Tqt-ue2brr-145" value="" style="ellipse;whiteSpace=wrap;html=1;aspect=fixed;fillColor=#ffffff;align=left;" parent="pLBHm1Zxr1Tqt-ue2brr-144" vertex="1">
          <mxGeometry width="44.11764705882353" height="44.11764705882353" as="geometry" />
        </mxCell>
        <mxCell id="pLBHm1Zxr1Tqt-ue2brr-146" value="" style="shape=flexArrow;endArrow=classic;html=1;strokeColor=none;fillColor=#C2C2C2;width=5;endWidth=11;endSize=4.33;rounded=1;" parent="pLBHm1Zxr1Tqt-ue2brr-144" edge="1">
          <mxGeometry x="-67.86176470588231" y="13.361580598342641" width="44.11764705882353" height="49.15960485041434" as="geometry">
            <mxPoint x="12.620473619644002" y="37.941383023549804" as="sourcePoint" />
            <mxPoint x="12.620473619644002" y="8.445620113301203" as="targetPoint" />
          </mxGeometry>
        </mxCell>
        <mxCell id="pLBHm1Zxr1Tqt-ue2brr-147" value="" style="shape=flexArrow;endArrow=classic;html=1;strokeColor=none;fillColor=#C2C2C2;width=5;endWidth=11;endSize=4.33;" parent="pLBHm1Zxr1Tqt-ue2brr-144" edge="1">
          <mxGeometry x="-67.86176470588231" y="13.361580598342641" width="44.11764705882353" height="49.15960485041434" as="geometry">
            <mxPoint x="30.267532443173394" y="8.445620113301203" as="sourcePoint" />
            <mxPoint x="30.267532443173394" y="37.941383023549804" as="targetPoint" />
          </mxGeometry>
        </mxCell>
        <mxCell id="pLBHm1Zxr1Tqt-ue2brr-149" value="" style="group" parent="pLBHm1Zxr1Tqt-ue2brr-137" vertex="1" connectable="0">
          <mxGeometry x="160" y="80" width="122.35" height="97.07" as="geometry" />
        </mxCell>
        <mxCell id="pLBHm1Zxr1Tqt-ue2brr-150" value="ancillary-master-data" style="text;fillColor=none;align=center;verticalAlign=top;spacingLeft=4;spacingRight=4;overflow=hidden;rotatable=0;points=[[0,0.5],[1,0.5]];portConstraint=eastwest;strokeColor=#B3B3B3;" parent="pLBHm1Zxr1Tqt-ue2brr-149" vertex="1">
          <mxGeometry y="71.74739130434781" width="122.34999999999997" height="25.32260869565217" as="geometry" />
        </mxCell>
        <mxCell id="pLBHm1Zxr1Tqt-ue2brr-151" value="" style="ellipse;whiteSpace=wrap;html=1;aspect=fixed;fillColor=none;" parent="pLBHm1Zxr1Tqt-ue2brr-149" vertex="1">
          <mxGeometry x="30.23615031178208" width="64.24680013127666" height="64.24680013127666" as="geometry" />
        </mxCell>
        <mxCell id="pLBHm1Zxr1Tqt-ue2brr-152" value="" style="outlineConnect=0;dashed=0;verticalLabelPosition=bottom;verticalAlign=top;align=center;html=1;shape=mxgraph.aws3.resources;gradientColor=none;fillColor=#E6E6E6;" parent="pLBHm1Zxr1Tqt-ue2brr-149" vertex="1">
          <mxGeometry x="48.18642526117431" y="16.878835272128264" width="28.34417652850441" height="36.100633680537875" as="geometry" />
        </mxCell>
        <mxCell id="pLBHm1Zxr1Tqt-ue2brr-153" value="" style="pointerEvents=1;shadow=0;dashed=0;html=1;strokeColor=none;labelPosition=center;verticalLabelPosition=bottom;verticalAlign=top;align=center;shape=mxgraph.mscae.intune.intune_vpn_profiles;fillColor=#B3B3B3;" parent="pLBHm1Zxr1Tqt-ue2brr-149" vertex="1">
          <mxGeometry x="85" y="35.06999999999999" width="22" height="29.18" as="geometry" />
        </mxCell>
        <mxCell id="pLBHm1Zxr1Tqt-ue2brr-165" value="&lt;div style=&quot;box-sizing: border-box ; font-family: &amp;#34;segoe ui&amp;#34; , , &amp;#34;apple color emoji&amp;#34; , &amp;#34;segoe ui emoji&amp;#34; , sans-serif ; font-size: 14px&quot;&gt;Ancillary&lt;/div&gt;" style="text;html=1;strokeColor=none;fillColor=none;align=center;verticalAlign=middle;whiteSpace=wrap;rounded=0;rotation=-45;" parent="pLBHm1Zxr1Tqt-ue2brr-137" vertex="1">
          <mxGeometry x="-17.004399062865872" y="33.995752141954185" width="58.87226774151925" height="29.963949623109702" as="geometry" />
        </mxCell>
        <mxCell id="cnmCpfoTb3ZLm3PdTzCf-11" value="" style="html=1;dashed=0;whitespace=wrap;strokeColor=#ffffff;points=[[0.005,0.63,0],[0.1,0.2,0],[0.9,0.2,0],[0.5,0,0],[0.995,0.63,0],[0.72,0.99,0],[0.5,1,0],[0.28,0.99,0]];shape=mxgraph.kubernetes.icon;prIcon=ing;fillColor=#B3B3B3;" parent="pLBHm1Zxr1Tqt-ue2brr-137" vertex="1">
          <mxGeometry x="130" y="80" width="40" height="36" as="geometry" />
        </mxCell>
        <mxCell id="cnmCpfoTb3ZLm3PdTzCf-17" value="" style="endArrow=none;html=1;exitX=0.883;exitY=0.324;exitDx=0;exitDy=0;exitPerimeter=0;entryX=0.105;entryY=0.187;entryDx=0;entryDy=0;entryPerimeter=0;" parent="pLBHm1Zxr1Tqt-ue2brr-137" source="cnmCpfoTb3ZLm3PdTzCf-11" target="pLBHm1Zxr1Tqt-ue2brr-151" edge="1">
          <mxGeometry width="50" height="50" relative="1" as="geometry">
            <mxPoint x="160" y="130" as="sourcePoint" />
            <mxPoint x="210" y="80" as="targetPoint" />
          </mxGeometry>
        </mxCell>
        <mxCell id="cnmCpfoTb3ZLm3PdTzCf-18" value="" style="endArrow=none;html=1;entryX=0.5;entryY=1;entryDx=0;entryDy=0;" parent="pLBHm1Zxr1Tqt-ue2brr-137" source="cnmCpfoTb3ZLm3PdTzCf-11" target="pLBHm1Zxr1Tqt-ue2brr-145" edge="1">
          <mxGeometry width="50" height="50" relative="1" as="geometry">
            <mxPoint x="120" y="100" as="sourcePoint" />
            <mxPoint x="170" y="50" as="targetPoint" />
          </mxGeometry>
        </mxCell>
        <mxCell id="cnmCpfoTb3ZLm3PdTzCf-19" value="" style="endArrow=none;html=1;entryX=0.5;entryY=1;entryDx=0;entryDy=0;entryPerimeter=0;exitX=0.5;exitY=0;exitDx=0;exitDy=0;" parent="pLBHm1Zxr1Tqt-ue2brr-137" source="pLBHm1Zxr1Tqt-ue2brr-156" target="cnmCpfoTb3ZLm3PdTzCf-11" edge="1">
          <mxGeometry width="50" height="50" relative="1" as="geometry">
            <mxPoint x="-80" y="130" as="sourcePoint" />
            <mxPoint x="-30" y="80" as="targetPoint" />
          </mxGeometry>
        </mxCell>
        <mxCell id="pLBHm1Zxr1Tqt-ue2brr-154" value="" style="group" parent="pLBHm1Zxr1Tqt-ue2brr-137" vertex="1" connectable="0">
          <mxGeometry x="73.99999999999997" y="200" width="160" height="97.07" as="geometry" />
        </mxCell>
        <mxCell id="pLBHm1Zxr1Tqt-ue2brr-155" value="ancillary-customization-data" style="text;fillColor=none;align=center;verticalAlign=top;spacingLeft=4;spacingRight=4;overflow=hidden;rotatable=0;points=[[0,0.5],[1,0.5]];portConstraint=eastwest;strokeColor=#B3B3B3;" parent="pLBHm1Zxr1Tqt-ue2brr-154" vertex="1">
          <mxGeometry y="71.75" width="160" height="25.32" as="geometry" />
        </mxCell>
        <mxCell id="pLBHm1Zxr1Tqt-ue2brr-156" value="" style="ellipse;whiteSpace=wrap;html=1;aspect=fixed;fillColor=none;" parent="pLBHm1Zxr1Tqt-ue2brr-154" vertex="1">
          <mxGeometry x="44.236150311782126" width="64.24680013127666" height="64.24680013127666" as="geometry" />
        </mxCell>
        <mxCell id="pLBHm1Zxr1Tqt-ue2brr-157" value="" style="outlineConnect=0;dashed=0;verticalLabelPosition=bottom;verticalAlign=top;align=center;html=1;shape=mxgraph.aws3.resources;gradientColor=none;fillColor=#E6E6E6;" parent="pLBHm1Zxr1Tqt-ue2brr-154" vertex="1">
          <mxGeometry x="62.18642526117435" y="16.878835272128242" width="28.34417652850441" height="36.100633680537875" as="geometry" />
        </mxCell>
        <mxCell id="pLBHm1Zxr1Tqt-ue2brr-158" value="" style="pointerEvents=1;shadow=0;dashed=0;html=1;strokeColor=none;labelPosition=center;verticalLabelPosition=bottom;verticalAlign=top;align=center;shape=mxgraph.mscae.intune.intune_vpn_profiles;fillColor=#B3B3B3;" parent="pLBHm1Zxr1Tqt-ue2brr-154" vertex="1">
          <mxGeometry x="99" y="35.06999999999999" width="22" height="29.18" as="geometry" />
        </mxCell>
        <mxCell id="JkKGlya94b-ltPTYIOOB-8" value="" style="group" parent="pLBHm1Zxr1Tqt-ue2brr-137" vertex="1" connectable="0">
          <mxGeometry x="201" y="191.0000000000001" width="69.23" height="77.48000000000002" as="geometry" />
        </mxCell>
        <mxCell id="pLBHm1Zxr1Tqt-ue2brr-161" value="" style="aspect=fixed;pointerEvents=1;shadow=0;dashed=0;html=1;strokeColor=none;labelPosition=center;verticalLabelPosition=bottom;verticalAlign=top;align=center;shape=mxgraph.mscae.enterprise.database_generic;fillColor=#B3B3B3;" parent="JkKGlya94b-ltPTYIOOB-8" vertex="1">
          <mxGeometry x="38.9579263711496" y="19.995566265060233" width="24.041593469204617" height="32.486203175262744" as="geometry" />
        </mxCell>
        <mxCell id="pLBHm1Zxr1Tqt-ue2brr-168" value="" style="group" parent="1" vertex="1" connectable="0">
          <mxGeometry x="160" y="670" width="296.29" height="320" as="geometry" />
        </mxCell>
        <mxCell id="pLBHm1Zxr1Tqt-ue2brr-169" value="" style="verticalLabelPosition=middle;verticalAlign=middle;html=1;shape=mxgraph.basic.polygon;polyCoords=[[0.25,0],[0.75,0],[1,0.25],[1,0.75],[0.75,1],[0.25,1],[0,0.75],[0,0.25]];polyline=0;fillColor=#ffffff;fontSize=12;align=center;labelPosition=center;" parent="pLBHm1Zxr1Tqt-ue2brr-168" vertex="1">
          <mxGeometry y="20" width="296.29" height="300" as="geometry" />
        </mxCell>
        <mxCell id="pLBHm1Zxr1Tqt-ue2brr-170" value="" style="group" parent="pLBHm1Zxr1Tqt-ue2brr-168" vertex="1" connectable="0">
          <mxGeometry x="130.00000000000006" width="59" height="44.11999999999999" as="geometry" />
        </mxCell>
        <mxCell id="pLBHm1Zxr1Tqt-ue2brr-171" value="" style="ellipse;whiteSpace=wrap;html=1;aspect=fixed;fillColor=#ffffff;align=left;" parent="pLBHm1Zxr1Tqt-ue2brr-170" vertex="1">
          <mxGeometry width="44.11764705882353" height="44.11764705882353" as="geometry" />
        </mxCell>
        <mxCell id="pLBHm1Zxr1Tqt-ue2brr-172" value="" style="shape=flexArrow;endArrow=classic;html=1;strokeColor=none;fillColor=#C2C2C2;width=5;endWidth=11;endSize=4.33;rounded=1;" parent="pLBHm1Zxr1Tqt-ue2brr-170" edge="1">
          <mxGeometry x="-67.86176470588231" y="13.361580598342641" width="44.11764705882353" height="49.15960485041434" as="geometry">
            <mxPoint x="12.620473619644002" y="37.941383023549804" as="sourcePoint" />
            <mxPoint x="12.620473619644002" y="8.445620113301203" as="targetPoint" />
          </mxGeometry>
        </mxCell>
        <mxCell id="pLBHm1Zxr1Tqt-ue2brr-173" value="" style="shape=flexArrow;endArrow=classic;html=1;strokeColor=none;fillColor=#C2C2C2;width=5;endWidth=11;endSize=4.33;" parent="pLBHm1Zxr1Tqt-ue2brr-170" edge="1">
          <mxGeometry x="-67.86176470588231" y="13.361580598342641" width="44.11764705882353" height="49.15960485041434" as="geometry">
            <mxPoint x="30.267532443173394" y="8.445620113301203" as="sourcePoint" />
            <mxPoint x="30.267532443173394" y="37.941383023549804" as="targetPoint" />
          </mxGeometry>
        </mxCell>
        <mxCell id="pLBHm1Zxr1Tqt-ue2brr-183" value="&lt;div style=&quot;box-sizing: border-box ; font-family: &amp;quot;segoe ui&amp;quot; , , &amp;quot;apple color emoji&amp;quot; , &amp;quot;segoe ui emoji&amp;quot; , sans-serif ; font-size: 14px&quot;&gt;Warehouse&lt;/div&gt;" style="text;html=1;strokeColor=none;fillColor=none;align=center;verticalAlign=middle;whiteSpace=wrap;rounded=0;rotation=-45;" parent="pLBHm1Zxr1Tqt-ue2brr-168" vertex="1">
          <mxGeometry x="-9.004399062865843" y="26.995752141954185" width="58.87226774151925" height="29.963949623109702" as="geometry" />
        </mxCell>
        <mxCell id="cnmCpfoTb3ZLm3PdTzCf-21" value="" style="html=1;dashed=0;whitespace=wrap;strokeColor=#ffffff;points=[[0.005,0.63,0],[0.1,0.2,0],[0.9,0.2,0],[0.5,0,0],[0.995,0.63,0],[0.72,0.99,0],[0.5,1,0],[0.28,0.99,0]];shape=mxgraph.kubernetes.icon;prIcon=ing;fillColor=#B3B3B3;" parent="pLBHm1Zxr1Tqt-ue2brr-168" vertex="1">
          <mxGeometry x="130.89999999999998" y="70.00000000000003" width="40" height="36" as="geometry" />
        </mxCell>
        <mxCell id="cnmCpfoTb3ZLm3PdTzCf-22" value="" style="group" parent="pLBHm1Zxr1Tqt-ue2brr-168" vertex="1" connectable="0">
          <mxGeometry x="116.28000000000006" y="230.00000000000006" width="69.22999999999999" height="77.48000000000002" as="geometry" />
        </mxCell>
        <mxCell id="pLBHm1Zxr1Tqt-ue2brr-177" value="" style="aspect=fixed;pointerEvents=1;shadow=0;dashed=0;html=1;strokeColor=none;labelPosition=center;verticalLabelPosition=bottom;verticalAlign=top;align=center;shape=mxgraph.mscae.enterprise.database_generic;fillColor=#B3B3B3;" parent="cnmCpfoTb3ZLm3PdTzCf-22" vertex="1">
          <mxGeometry x="38.9579263711496" y="19.995566265060233" width="24.041593469204617" height="32.486203175262744" as="geometry" />
        </mxCell>
        <mxCell id="cnmCpfoTb3ZLm3PdTzCf-23" value="" style="endArrow=none;html=1;entryX=0.5;entryY=1;entryDx=0;entryDy=0;" parent="pLBHm1Zxr1Tqt-ue2brr-168" source="cnmCpfoTb3ZLm3PdTzCf-21" target="pLBHm1Zxr1Tqt-ue2brr-171" edge="1">
          <mxGeometry width="50" height="50" relative="1" as="geometry">
            <mxPoint x="100" y="100" as="sourcePoint" />
            <mxPoint x="150" y="50" as="targetPoint" />
          </mxGeometry>
        </mxCell>
        <mxCell id="cnmCpfoTb3ZLm3PdTzCf-24" value="" style="endArrow=none;html=1;entryX=0.5;entryY=1;entryDx=0;entryDy=0;entryPerimeter=0;" parent="pLBHm1Zxr1Tqt-ue2brr-168" source="pLBHm1Zxr1Tqt-ue2brr-180" target="cnmCpfoTb3ZLm3PdTzCf-21" edge="1">
          <mxGeometry width="50" height="50" relative="1" as="geometry">
            <mxPoint x="90" y="150" as="sourcePoint" />
            <mxPoint x="140" y="100" as="targetPoint" />
          </mxGeometry>
        </mxCell>
        <mxCell id="cnmCpfoTb3ZLm3PdTzCf-20" value="" style="group" parent="pLBHm1Zxr1Tqt-ue2brr-168" vertex="1" connectable="0">
          <mxGeometry x="63.79000000000002" y="121.47000000000001" width="174.21" height="97.07" as="geometry" />
        </mxCell>
        <mxCell id="pLBHm1Zxr1Tqt-ue2brr-179" value="warehouse-inventory-service" style="text;fillColor=none;align=center;verticalAlign=top;spacingLeft=4;spacingRight=4;overflow=hidden;rotatable=0;points=[[0,0.5],[1,0.5]];portConstraint=eastwest;strokeColor=#B3B3B3;fontColor=#000000;" parent="cnmCpfoTb3ZLm3PdTzCf-20" vertex="1">
          <mxGeometry y="71.75" width="174.21" height="25.32" as="geometry" />
        </mxCell>
        <mxCell id="pLBHm1Zxr1Tqt-ue2brr-180" value="" style="ellipse;whiteSpace=wrap;html=1;aspect=fixed;fillColor=none;" parent="cnmCpfoTb3ZLm3PdTzCf-20" vertex="1">
          <mxGeometry x="55.09615031178214" width="64.24680013127666" height="64.24680013127666" as="geometry" />
        </mxCell>
        <mxCell id="pLBHm1Zxr1Tqt-ue2brr-181" value="" style="outlineConnect=0;dashed=0;verticalLabelPosition=bottom;verticalAlign=top;align=center;html=1;shape=mxgraph.aws3.resources;gradientColor=none;fillColor=#E6E6E6;" parent="cnmCpfoTb3ZLm3PdTzCf-20" vertex="1">
          <mxGeometry x="72.04642526117436" y="14.878835272128242" width="28.34417652850441" height="36.100633680537875" as="geometry" />
        </mxCell>
        <mxCell id="pLBHm1Zxr1Tqt-ue2brr-182" value="" style="pointerEvents=1;shadow=0;dashed=0;html=1;strokeColor=none;labelPosition=center;verticalLabelPosition=bottom;verticalAlign=top;align=center;shape=mxgraph.mscae.intune.intune_vpn_profiles;fillColor=#B3B3B3;" parent="cnmCpfoTb3ZLm3PdTzCf-20" vertex="1">
          <mxGeometry x="108.86000000000001" y="28.069999999999993" width="22" height="29.18" as="geometry" />
        </mxCell>
        <mxCell id="pLBHm1Zxr1Tqt-ue2brr-184" value="" style="group" parent="1" vertex="1" connectable="0">
          <mxGeometry x="1030" y="410" width="296.29" height="320" as="geometry" />
        </mxCell>
        <mxCell id="pLBHm1Zxr1Tqt-ue2brr-185" value="" style="verticalLabelPosition=middle;verticalAlign=middle;html=1;shape=mxgraph.basic.polygon;polyCoords=[[0.25,0],[0.75,0],[1,0.25],[1,0.75],[0.75,1],[0.25,1],[0,0.75],[0,0.25]];polyline=0;fillColor=#ffffff;fontSize=12;align=center;labelPosition=center;" parent="pLBHm1Zxr1Tqt-ue2brr-184" vertex="1">
          <mxGeometry y="20" width="296.29" height="300" as="geometry" />
        </mxCell>
        <mxCell id="pLBHm1Zxr1Tqt-ue2brr-186" value="" style="group" parent="pLBHm1Zxr1Tqt-ue2brr-184" vertex="1" connectable="0">
          <mxGeometry x="130.00000000000006" width="59" height="44.11999999999999" as="geometry" />
        </mxCell>
        <mxCell id="pLBHm1Zxr1Tqt-ue2brr-187" value="" style="ellipse;whiteSpace=wrap;html=1;aspect=fixed;fillColor=#ffffff;align=left;" parent="pLBHm1Zxr1Tqt-ue2brr-186" vertex="1">
          <mxGeometry width="44.11764705882353" height="44.11764705882353" as="geometry" />
        </mxCell>
        <mxCell id="pLBHm1Zxr1Tqt-ue2brr-188" value="" style="shape=flexArrow;endArrow=classic;html=1;strokeColor=none;fillColor=#C2C2C2;width=5;endWidth=11;endSize=4.33;rounded=1;" parent="pLBHm1Zxr1Tqt-ue2brr-186" edge="1">
          <mxGeometry x="-67.86176470588231" y="13.361580598342641" width="44.11764705882353" height="49.15960485041434" as="geometry">
            <mxPoint x="12.620473619644002" y="37.941383023549804" as="sourcePoint" />
            <mxPoint x="12.620473619644002" y="8.445620113301203" as="targetPoint" />
          </mxGeometry>
        </mxCell>
        <mxCell id="pLBHm1Zxr1Tqt-ue2brr-189" value="" style="shape=flexArrow;endArrow=classic;html=1;strokeColor=none;fillColor=#C2C2C2;width=5;endWidth=11;endSize=4.33;" parent="pLBHm1Zxr1Tqt-ue2brr-186" edge="1">
          <mxGeometry x="-67.86176470588231" y="13.361580598342641" width="44.11764705882353" height="49.15960485041434" as="geometry">
            <mxPoint x="30.267532443173394" y="8.445620113301203" as="sourcePoint" />
            <mxPoint x="30.267532443173394" y="37.941383023549804" as="targetPoint" />
          </mxGeometry>
        </mxCell>
        <mxCell id="cnmCpfoTb3ZLm3PdTzCf-37" value="" style="group" parent="pLBHm1Zxr1Tqt-ue2brr-184" vertex="1" connectable="0">
          <mxGeometry x="62.04000000000002" y="121.46" width="210" height="97.07" as="geometry" />
        </mxCell>
        <mxCell id="pLBHm1Zxr1Tqt-ue2brr-195" value="N/A" style="text;fillColor=none;align=center;verticalAlign=top;spacingLeft=4;spacingRight=4;overflow=hidden;rotatable=0;points=[[0,0.5],[1,0.5]];portConstraint=eastwest;strokeColor=#B3B3B3;" parent="cnmCpfoTb3ZLm3PdTzCf-37" vertex="1">
          <mxGeometry x="-20" y="71.75" width="230" height="25.32" as="geometry" />
        </mxCell>
        <mxCell id="pLBHm1Zxr1Tqt-ue2brr-196" value="" style="ellipse;whiteSpace=wrap;html=1;aspect=fixed;fillColor=none;" parent="cnmCpfoTb3ZLm3PdTzCf-37" vertex="1">
          <mxGeometry x="54.09615031178214" width="64.24680013127666" height="64.24680013127666" as="geometry" />
        </mxCell>
        <mxCell id="pLBHm1Zxr1Tqt-ue2brr-197" value="" style="outlineConnect=0;dashed=0;verticalLabelPosition=bottom;verticalAlign=top;align=center;html=1;shape=mxgraph.aws3.resources;gradientColor=none;fillColor=#E6E6E6;" parent="cnmCpfoTb3ZLm3PdTzCf-37" vertex="1">
          <mxGeometry x="72.04642526117436" y="16.878835272128242" width="28.34417652850441" height="36.100633680537875" as="geometry" />
        </mxCell>
        <mxCell id="pLBHm1Zxr1Tqt-ue2brr-198" value="" style="pointerEvents=1;shadow=0;dashed=0;html=1;strokeColor=none;labelPosition=center;verticalLabelPosition=bottom;verticalAlign=top;align=center;shape=mxgraph.mscae.intune.intune_vpn_profiles;fillColor=#B3B3B3;" parent="cnmCpfoTb3ZLm3PdTzCf-37" vertex="1">
          <mxGeometry x="108.86000000000001" y="35.06999999999999" width="22" height="29.18" as="geometry" />
        </mxCell>
        <mxCell id="cnmCpfoTb3ZLm3PdTzCf-12" value="" style="html=1;dashed=0;whitespace=wrap;strokeColor=#ffffff;points=[[0.005,0.63,0],[0.1,0.2,0],[0.9,0.2,0],[0.5,0,0],[0.995,0.63,0],[0.72,0.99,0],[0.5,1,0],[0.28,0.99,0]];shape=mxgraph.kubernetes.icon;prIcon=ing;fillColor=#B3B3B3;" parent="pLBHm1Zxr1Tqt-ue2brr-184" vertex="1">
          <mxGeometry x="132.06" y="70" width="40" height="36" as="geometry" />
        </mxCell>
        <mxCell id="pLBHm1Zxr1Tqt-ue2brr-191" value="" style="group" parent="pLBHm1Zxr1Tqt-ue2brr-184" vertex="1" connectable="0">
          <mxGeometry x="113.53000000000006" y="230" width="69.23" height="77.48000000000002" as="geometry" />
        </mxCell>
        <mxCell id="pLBHm1Zxr1Tqt-ue2brr-193" value="" style="aspect=fixed;pointerEvents=1;shadow=0;dashed=0;html=1;strokeColor=none;labelPosition=center;verticalLabelPosition=bottom;verticalAlign=top;align=center;shape=mxgraph.mscae.enterprise.database_generic;fillColor=#B3B3B3;" parent="pLBHm1Zxr1Tqt-ue2brr-191" vertex="1">
          <mxGeometry x="26.507926371149598" y="22.495566265060233" width="24.041593469204617" height="32.486203175262744" as="geometry" />
        </mxCell>
        <mxCell id="cnmCpfoTb3ZLm3PdTzCf-38" value="" style="endArrow=none;html=1;entryX=0.5;entryY=1;entryDx=0;entryDy=0;" parent="pLBHm1Zxr1Tqt-ue2brr-184" source="cnmCpfoTb3ZLm3PdTzCf-12" target="pLBHm1Zxr1Tqt-ue2brr-187" edge="1">
          <mxGeometry width="50" height="50" relative="1" as="geometry">
            <mxPoint x="100" y="90" as="sourcePoint" />
            <mxPoint x="150" y="40" as="targetPoint" />
          </mxGeometry>
        </mxCell>
        <mxCell id="cnmCpfoTb3ZLm3PdTzCf-39" value="" style="endArrow=none;html=1;entryX=0.5;entryY=1;entryDx=0;entryDy=0;entryPerimeter=0;exitX=0.559;exitY=0.019;exitDx=0;exitDy=0;exitPerimeter=0;" parent="pLBHm1Zxr1Tqt-ue2brr-184" source="pLBHm1Zxr1Tqt-ue2brr-196" target="cnmCpfoTb3ZLm3PdTzCf-12" edge="1">
          <mxGeometry width="50" height="50" relative="1" as="geometry">
            <mxPoint x="130" y="150" as="sourcePoint" />
            <mxPoint x="180" y="100" as="targetPoint" />
          </mxGeometry>
        </mxCell>
        <mxCell id="pLBHm1Zxr1Tqt-ue2brr-199" value="" style="group" parent="1" vertex="1" connectable="0">
          <mxGeometry x="750" y="670" width="296.28999999999996" height="320" as="geometry" />
        </mxCell>
        <mxCell id="pLBHm1Zxr1Tqt-ue2brr-200" value="" style="verticalLabelPosition=middle;verticalAlign=middle;html=1;shape=mxgraph.basic.polygon;polyCoords=[[0.25,0],[0.75,0],[1,0.25],[1,0.75],[0.75,1],[0.25,1],[0,0.75],[0,0.25]];polyline=0;fillColor=#ffffff;fontSize=12;align=center;labelPosition=center;" parent="pLBHm1Zxr1Tqt-ue2brr-199" vertex="1">
          <mxGeometry y="20" width="296.29" height="300" as="geometry" />
        </mxCell>
        <mxCell id="pLBHm1Zxr1Tqt-ue2brr-201" value="" style="group" parent="pLBHm1Zxr1Tqt-ue2brr-199" vertex="1" connectable="0">
          <mxGeometry x="130" width="59" height="44.11999999999999" as="geometry" />
        </mxCell>
        <mxCell id="pLBHm1Zxr1Tqt-ue2brr-202" value="" style="ellipse;whiteSpace=wrap;html=1;aspect=fixed;fillColor=#ffffff;align=left;" parent="pLBHm1Zxr1Tqt-ue2brr-201" vertex="1">
          <mxGeometry width="44.11764705882353" height="44.11764705882353" as="geometry" />
        </mxCell>
        <mxCell id="pLBHm1Zxr1Tqt-ue2brr-203" value="" style="shape=flexArrow;endArrow=classic;html=1;strokeColor=none;fillColor=#C2C2C2;width=5;endWidth=11;endSize=4.33;rounded=1;" parent="pLBHm1Zxr1Tqt-ue2brr-201" edge="1">
          <mxGeometry x="-67.86176470588231" y="13.361580598342641" width="44.11764705882353" height="49.15960485041434" as="geometry">
            <mxPoint x="12.620473619644002" y="37.941383023549804" as="sourcePoint" />
            <mxPoint x="12.620473619644002" y="8.445620113301203" as="targetPoint" />
          </mxGeometry>
        </mxCell>
        <mxCell id="pLBHm1Zxr1Tqt-ue2brr-204" value="" style="shape=flexArrow;endArrow=classic;html=1;strokeColor=none;fillColor=#C2C2C2;width=5;endWidth=11;endSize=4.33;" parent="pLBHm1Zxr1Tqt-ue2brr-201" edge="1">
          <mxGeometry x="-67.86176470588231" y="13.361580598342641" width="44.11764705882353" height="49.15960485041434" as="geometry">
            <mxPoint x="30.267532443173394" y="8.445620113301203" as="sourcePoint" />
            <mxPoint x="30.267532443173394" y="37.941383023549804" as="targetPoint" />
          </mxGeometry>
        </mxCell>
        <mxCell id="pLBHm1Zxr1Tqt-ue2brr-224" value="&lt;font style=&quot;font-size: 14px&quot;&gt;Products&lt;/font&gt;" style="text;html=1;strokeColor=none;fillColor=none;align=center;verticalAlign=middle;whiteSpace=wrap;rounded=0;rotation=-45;" parent="pLBHm1Zxr1Tqt-ue2brr-199" vertex="1">
          <mxGeometry y="37.12000000000006" width="40" height="20" as="geometry" />
        </mxCell>
        <mxCell id="pLBHm1Zxr1Tqt-ue2brr-208" value="" style="aspect=fixed;pointerEvents=1;shadow=0;dashed=0;html=1;strokeColor=none;labelPosition=center;verticalLabelPosition=bottom;verticalAlign=top;align=center;shape=mxgraph.mscae.enterprise.database_generic;fillColor=#B3B3B3;" parent="pLBHm1Zxr1Tqt-ue2brr-199" vertex="1">
          <mxGeometry x="68.9579263711496" y="203.1355662650603" width="24.041593469204617" height="32.486203175262744" as="geometry" />
        </mxCell>
        <mxCell id="pLBHm1Zxr1Tqt-ue2brr-214" value="" style="group" parent="pLBHm1Zxr1Tqt-ue2brr-199" vertex="1" connectable="0">
          <mxGeometry x="149.99999999999997" y="173.34000000000003" width="122.35" height="97.07" as="geometry" />
        </mxCell>
        <mxCell id="pLBHm1Zxr1Tqt-ue2brr-215" value="product-item-service" style="text;fillColor=none;align=center;verticalAlign=top;spacingLeft=4;spacingRight=4;overflow=hidden;rotatable=0;points=[[0,0.5],[1,0.5]];portConstraint=eastwest;strokeColor=#B3B3B3;" parent="pLBHm1Zxr1Tqt-ue2brr-214" vertex="1">
          <mxGeometry y="71.74739130434781" width="122.34999999999997" height="25.32260869565217" as="geometry" />
        </mxCell>
        <mxCell id="pLBHm1Zxr1Tqt-ue2brr-216" value="" style="ellipse;whiteSpace=wrap;html=1;aspect=fixed;fillColor=none;" parent="pLBHm1Zxr1Tqt-ue2brr-214" vertex="1">
          <mxGeometry x="30.23615031178208" width="64.24680013127666" height="64.24680013127666" as="geometry" />
        </mxCell>
        <mxCell id="pLBHm1Zxr1Tqt-ue2brr-217" value="" style="outlineConnect=0;dashed=0;verticalLabelPosition=bottom;verticalAlign=top;align=center;html=1;shape=mxgraph.aws3.resources;gradientColor=none;fillColor=#E6E6E6;" parent="pLBHm1Zxr1Tqt-ue2brr-214" vertex="1">
          <mxGeometry x="48.18642526117431" y="16.878835272128264" width="28.34417652850441" height="36.100633680537875" as="geometry" />
        </mxCell>
        <mxCell id="pLBHm1Zxr1Tqt-ue2brr-218" value="" style="pointerEvents=1;shadow=0;dashed=0;html=1;strokeColor=none;labelPosition=center;verticalLabelPosition=bottom;verticalAlign=top;align=center;shape=mxgraph.mscae.intune.intune_vpn_profiles;fillColor=#B3B3B3;" parent="pLBHm1Zxr1Tqt-ue2brr-214" vertex="1">
          <mxGeometry x="85" y="35.06999999999999" width="22" height="29.18" as="geometry" />
        </mxCell>
        <mxCell id="cnmCpfoTb3ZLm3PdTzCf-31" value="" style="group" parent="pLBHm1Zxr1Tqt-ue2brr-199" vertex="1" connectable="0">
          <mxGeometry x="130" y="64.73000000000002" width="157.11" height="96.58999999999997" as="geometry" />
        </mxCell>
        <mxCell id="pLBHm1Zxr1Tqt-ue2brr-210" value="product-style-service" style="text;fillColor=none;align=center;verticalAlign=top;spacingLeft=4;spacingRight=4;overflow=hidden;rotatable=0;points=[[0,0.5],[1,0.5]];portConstraint=eastwest;strokeColor=#B3B3B3;" parent="cnmCpfoTb3ZLm3PdTzCf-31" vertex="1">
          <mxGeometry y="71.26999999999998" width="157.11" height="25.32" as="geometry" />
        </mxCell>
        <mxCell id="pLBHm1Zxr1Tqt-ue2brr-211" value="" style="ellipse;whiteSpace=wrap;html=1;aspect=fixed;fillColor=none;" parent="cnmCpfoTb3ZLm3PdTzCf-31" vertex="1">
          <mxGeometry x="40.8861503117821" width="64.24680013127666" height="64.24680013127666" as="geometry" />
        </mxCell>
        <mxCell id="pLBHm1Zxr1Tqt-ue2brr-212" value="" style="outlineConnect=0;dashed=0;verticalLabelPosition=bottom;verticalAlign=top;align=center;html=1;shape=mxgraph.aws3.resources;gradientColor=none;fillColor=#E6E6E6;" parent="cnmCpfoTb3ZLm3PdTzCf-31" vertex="1">
          <mxGeometry x="58.83642526117433" y="18.06883527212824" width="28.34417652850441" height="36.100633680537875" as="geometry" />
        </mxCell>
        <mxCell id="pLBHm1Zxr1Tqt-ue2brr-213" value="" style="pointerEvents=1;shadow=0;dashed=0;html=1;strokeColor=none;labelPosition=center;verticalLabelPosition=bottom;verticalAlign=top;align=center;shape=mxgraph.mscae.intune.intune_vpn_profiles;fillColor=#B3B3B3;" parent="cnmCpfoTb3ZLm3PdTzCf-31" vertex="1">
          <mxGeometry x="90" y="37.06999999999999" width="22" height="29.18" as="geometry" />
        </mxCell>
        <mxCell id="cnmCpfoTb3ZLm3PdTzCf-33" value="" style="html=1;dashed=0;whitespace=wrap;strokeColor=#ffffff;points=[[0.005,0.63,0],[0.1,0.2,0],[0.9,0.2,0],[0.5,0,0],[0.995,0.63,0],[0.72,0.99,0],[0.5,1,0],[0.28,0.99,0]];shape=mxgraph.kubernetes.icon;prIcon=ing;fillColor=#B3B3B3;" parent="pLBHm1Zxr1Tqt-ue2brr-199" vertex="1">
          <mxGeometry x="53" y="90" width="40" height="36" as="geometry" />
        </mxCell>
        <mxCell id="cnmCpfoTb3ZLm3PdTzCf-34" value="" style="endArrow=none;html=1;exitX=0.024;exitY=0.471;exitDx=0;exitDy=0;exitPerimeter=0;" parent="pLBHm1Zxr1Tqt-ue2brr-199" source="pLBHm1Zxr1Tqt-ue2brr-216" edge="1">
          <mxGeometry width="50" height="50" relative="1" as="geometry">
            <mxPoint x="60" y="170" as="sourcePoint" />
            <mxPoint x="90" y="111" as="targetPoint" />
            <Array as="points">
              <mxPoint x="110" y="204" />
              <mxPoint x="110" y="110" />
            </Array>
          </mxGeometry>
        </mxCell>
        <mxCell id="cnmCpfoTb3ZLm3PdTzCf-35" value="" style="endArrow=none;html=1;exitX=0.858;exitY=0.231;exitDx=0;exitDy=0;exitPerimeter=0;entryX=0;entryY=0.5;entryDx=0;entryDy=0;" parent="pLBHm1Zxr1Tqt-ue2brr-199" source="cnmCpfoTb3ZLm3PdTzCf-33" target="pLBHm1Zxr1Tqt-ue2brr-211" edge="1">
          <mxGeometry width="50" height="50" relative="1" as="geometry">
            <mxPoint x="100" y="130" as="sourcePoint" />
            <mxPoint x="150" y="80" as="targetPoint" />
          </mxGeometry>
        </mxCell>
        <mxCell id="cnmCpfoTb3ZLm3PdTzCf-36" value="" style="endArrow=none;html=1;exitX=0.5;exitY=0;exitDx=0;exitDy=0;exitPerimeter=0;entryX=0.5;entryY=1;entryDx=0;entryDy=0;" parent="pLBHm1Zxr1Tqt-ue2brr-199" source="cnmCpfoTb3ZLm3PdTzCf-33" target="pLBHm1Zxr1Tqt-ue2brr-202" edge="1">
          <mxGeometry width="50" height="50" relative="1" as="geometry">
            <mxPoint x="70" y="100" as="sourcePoint" />
            <mxPoint x="120" y="50" as="targetPoint" />
            <Array as="points">
              <mxPoint x="73" y="60" />
              <mxPoint x="152" y="60" />
            </Array>
          </mxGeometry>
        </mxCell>
        <mxCell id="pLBHm1Zxr1Tqt-ue2brr-225" value="" style="group" parent="1" vertex="1" connectable="0">
          <mxGeometry x="425" y="1560" width="316.28999999999996" height="300" as="geometry" />
        </mxCell>
        <mxCell id="pLBHm1Zxr1Tqt-ue2brr-226" value="" style="verticalLabelPosition=middle;verticalAlign=middle;html=1;shape=mxgraph.basic.polygon;polyCoords=[[0.25,0],[0.75,0],[1,0.25],[1,0.75],[0.75,1],[0.25,1],[0,0.75],[0,0.25]];polyline=0;fillColor=#ffffff;fontSize=12;align=center;labelPosition=center;" parent="pLBHm1Zxr1Tqt-ue2brr-225" vertex="1">
          <mxGeometry x="20" width="296.29" height="300" as="geometry" />
        </mxCell>
        <mxCell id="pLBHm1Zxr1Tqt-ue2brr-16" value="&lt;font style=&quot;font-size: 14px&quot;&gt;M3 ERP&lt;/font&gt;" style="text;html=1;strokeColor=none;fillColor=none;align=center;verticalAlign=middle;whiteSpace=wrap;rounded=0;rotation=-45;" parent="pLBHm1Zxr1Tqt-ue2brr-225" vertex="1">
          <mxGeometry x="1.6385111207343925" y="17.999999999999943" width="71.72675628059433" height="24.40933564305445" as="geometry" />
        </mxCell>
        <mxCell id="pLBHm1Zxr1Tqt-ue2brr-231" value="" style="group" parent="pLBHm1Zxr1Tqt-ue2brr-225" vertex="1" connectable="0">
          <mxGeometry x="106.97" y="25.999999999999943" width="122.34999999999991" height="127.07000000000005" as="geometry" />
        </mxCell>
        <mxCell id="pLBHm1Zxr1Tqt-ue2brr-232" value="" style="rounded=1;whiteSpace=wrap;html=1;opacity=30;labelPosition=center;verticalLabelPosition=top;align=center;verticalAlign=bottom;fillColor=#d5e8d4;strokeColor=#82b366;gradientColor=#97d077;direction=west;rotation=0;" parent="pLBHm1Zxr1Tqt-ue2brr-231" vertex="1">
          <mxGeometry x="11.178511120734356" width="100" height="90" as="geometry" />
        </mxCell>
        <mxCell id="pLBHm1Zxr1Tqt-ue2brr-233" value="" style="outlineConnect=0;fontColor=#232F3E;gradientDirection=north;strokeColor=#ffffff;dashed=0;verticalLabelPosition=bottom;verticalAlign=top;align=center;html=1;fontSize=12;fontStyle=0;aspect=fixed;shape=mxgraph.aws4.resourceIcon;resIcon=mxgraph.aws4.api_gateway;gradientColor=#CCCCCC;fillColor=#808080;rotation=0;" parent="pLBHm1Zxr1Tqt-ue2brr-231" vertex="1">
          <mxGeometry x="36.178511120734356" y="19.999999999999986" width="50" height="50" as="geometry" />
        </mxCell>
        <mxCell id="pLBHm1Zxr1Tqt-ue2brr-234" value="M3 REST API" style="text;fillColor=none;align=center;verticalAlign=top;spacingLeft=4;spacingRight=4;overflow=hidden;rotatable=0;points=[[0,0.5],[1,0.5]];portConstraint=eastwest;strokeColor=#B3B3B3;" parent="pLBHm1Zxr1Tqt-ue2brr-231" vertex="1">
          <mxGeometry y="100.00000000000006" width="122.35" height="27.07" as="geometry" />
        </mxCell>
        <mxCell id="pLBHm1Zxr1Tqt-ue2brr-236" value="" style="group" parent="1" vertex="1" connectable="0">
          <mxGeometry x="451.85" y="-330" width="296.28999999999996" height="324.12" as="geometry" />
        </mxCell>
        <mxCell id="pLBHm1Zxr1Tqt-ue2brr-237" value="" style="verticalLabelPosition=middle;verticalAlign=middle;html=1;shape=mxgraph.basic.polygon;polyCoords=[[0.25,0],[0.75,0],[1,0.25],[1,0.75],[0.75,1],[0.25,1],[0,0.75],[0,0.25]];polyline=0;fillColor=#ffffff;fontSize=12;align=center;labelPosition=center;" parent="pLBHm1Zxr1Tqt-ue2brr-236" vertex="1">
          <mxGeometry width="296.29" height="300" as="geometry" />
        </mxCell>
        <mxCell id="pLBHm1Zxr1Tqt-ue2brr-242" value="" style="group" parent="pLBHm1Zxr1Tqt-ue2brr-236" vertex="1" connectable="0">
          <mxGeometry x="84" y="96" width="130" height="114" as="geometry" />
        </mxCell>
        <mxCell id="pLBHm1Zxr1Tqt-ue2brr-243" value="" style="shape=image;aspect=fixed;image=data:image/png,iVBORw0KGgoAAAANSUhEUgAAAgAAAAIACAYAAAD0eNT6AABT4klEQVR42u3deXwd9X0v/M/vN3OOzirv+yqJ3YAX2bJksxkDxmDwKi+yJNtAX2n79Lnt7XO73LTNTbenbUKX2+embdJAlrLG7GENIRhCYmx5kQ2GJBjb8obZjBdJ1nbm9/xhGwR4kTQz5zsz5/P+KwGfmc852D4fzfzm+1MgooKwr6oq6XTk5mmj65tynTc4wMEY9APFF43/6wlr13ZI5yOi/FLSAYjIP6a62tq7c98srUy9ARYCyADA7lwXmo0DALCVyqWAN4uU9Z1pjQ3/oQBHOjcR+Y8FgCiCmqZML9cG9Y7CcgUM/eK/714AumMZICocLABEEbFnSuWlClimYFYCuOBcv/ZsBaC7mFJdSWCHpexvzGjc+ID0+yMib7EAEIXYvolVoxzbWaIcVENhZk9f15MC0F0cqj0B/XrKdv6+fMuW56XfNxG5xwJAFDLvlpf3sx1rvla62sDcDMDu7TF6WwC6O10GiqD+umJ7w0vSnwcR9Q0LAFEIvHPB3KJ48Sc3aZhqAywGkHJzPDcFoLs4VHsS+mdFCn82bdumrdKfExH1HAsAUUAZQO8tnz5DO6g2CjUABnt1bK8KwGkKQJHSx4qAl2zL/nrllg3bBT4yIuoFFgCigGmaOG0CLKtawdQBKPXjHF4XgO4+Vwa0/eeVWze85ePHRUR9xAJAFAD7r5w+OhfDYmVQD2CK3+fzswB0d7oMJKCeUqnYn85Yv/6A7ycloh5hASASsnvSpP5axW9XStUBmI08/nnMVwHoTgFIQr9fpNSTcdt8fermze/lNQARfQ4LAFEe7b7uuoQ+1najBuoMzHwAcZEcAgWgOw0gcaoMpE3HX0zcvv0DsTBEBYoFgMhnny7mM6gzwHIAxdKZpAtAdxpAUun9RdDfb+tq/YdZO3Y0S2ciKgQsAEQ+aZo4bYK2VZ0xqh7ACOk83QWpAHRnASal9O4Y9AMx2/m7qZs3t0pnIooqFgAiDx0sLx/b6cRWaGVWG+AS6TxnE9QC0J0FZVJK7Y5BPzB8QPpvS9ata5PORBQlLABELu2rqhrotOXmSSzm66swFIDuuEkRkfcC/xcVURB9YTHfAgAx6Uy9yh+yAtAdywCRN1gAiHrIVFdbe3ftrdIGdQ6wQgFZ6Ux9FeYC0N3pHQtjsO6u3NZwn3QeojBhASA6j26L+VYBGC6dxwtRKQDdccdCot5hASA6g12TZ4yz4CxX2twBg4uk83gtigWgO+5YSHR+LABEp+yvqBiU61Inx/EqzECE/3xEvQB0d7oMaJP72sw3tr4qnYcoKCL7FxxRT+yrqko6Hbl52uh6AzMHIVvM11eFVABO446FRJ/HAkAFx1RXW3t37pullak3wEIAGelM+VaIBaA77lhIxAJABaRpyvRybVDvKCxXwFDpPJIKvQB0133HwlhcfbWioWGfdCaifGABoEhrmjz9Mii1VMGsBHCBdJ6gYAE4M+5YSIWEBYAiZ9/EqlGO7SxRDqqhMFM6TxCxAJyfUkDScMdCii4WAIqEd8vL+9mONV8rXW1gbgZgS2cKMhaA3uGOhRRFLAAUWu9cMLcoXvzJTRqm2gCLAaSkM4UFC0DfccdCigoWAAoVA+i95dNnaAfVRqEGwGDpTGHEAuAN7lhIYcYCQKHQNHHaBFhWtVKmHgYl0nnCjgXAe9ykiMKGBYACa/+V00fnYjg5mQ+YIp0nSlgA/MUyQGHAAkCBsnvSpP5axW9XStUBmA3+HvUFC0D+xKC6kgo7ipT1nYrGhn+TzkN0Gv9yJXG7r7suoY+13aiBOgMzH0BcOlPUsQDIOL0vQUxb36hs3PCsdB4qbCwAJOLTxXwGdQZYDqBYOlMhYQGQ91kZwN9WNm56UToPFR4WAMqrponTJmhb1Rmj6gGMkM5TqFgAguXT7Yst9b8qtja8Ip2HCgMLAPnuYHn52E4ntgLKrFHAxdJ5iAUgqLhjIeUTCwD5Yl9V1UCn3VmiDOqhMAP8vRYoLADBxx0LyW/8S5k8s6+qKul05OZpo+sNzBwAMelMdGYsAOHCHQvJDywA5Iqprrb27tpbpQ3qHGCFArLSmej8WADCizsWkldYAKhPPl3M56jVUBgmnYd6hwUgGrhjIbnBAkA9tntS5XitsEwpcyeAC6XzUN+xAESPBpCAfr9ImQfau9q/xh0L6XxYAOic9ldUDMp1qcVczBctLADRxh0LqSf4lzl9yRcW890MwJbORN5iASgc3LGQzoYFgACcWsy3c98srUy9ARYBSEtnIv+wABQmC3BSWv06Aev/cJMiYgEocE1Tppdrg3pHYbkChkrnofxgASDuWEgsAAWoafL0y6DUUgWnFlBl0nko/1gAqDvuWFiYWAAKxL6JVaMc21miHFRDYaZ0HpLFAkBnwx0LCwcLQIS9W17ez3as+Vrpai7mo+5YAKgnuGNhtLEARMw7F8wtihd/cpOGqTbAYgAp6UwUPCwA1FvcsTB6WAAiwAB6b/n0GdpBtVGoATBYOhMFGwsA9VX3TYricf1XFQ0NjdKZqG9YAEKsaeK0CbCsaqVMPQxKpPNQeLAAkBe4Y2G4sQCEzIFp08Z0OXqRNmaVgZosnYfCiQWAvNa9DGSKrD+dtHHjb6Qz0bmxAIRA0xVXDYDdcZtSqg7AbPC/G7nEAkB+4o6F4cAvkoDafd11CX2s7UYN1BmY+QDi0pkoOlgAKF+4Y2FwsQAEyKeL+QzqDLAcQLF0JoomFgCSwB0Lg4UFIACaJk6boG1VZ4yqBzBCOg9FHwsASeOOhfJYAIQcLC8f2+nEVkCZNQq4WDoPFRYWAAoS7lgogwUgj/ZVVQ102p0lyqAeCjPAz5+EsABQUHHHwvzhF5DP9lVVJZ2O3DxtdL2BmQMgJp2JiAWAwoA7FvqLBcAHprra2rtz3yytTL0DLFBAVjoTUXd7jIPjuS7pGEQ9xh0LvccC4KGmKdPLtUG9AZZBYZh0HqKzsf7oD/HGP/0zcu3t0lGIeo07FnqDBcCl3ZMqx2uFZUqZOwFcKJ2H6HzsEcMx/MlH8dY3vommh34kHYfIFe5Y2HcsAH2wv6JiUK5LLeZiPgqj/v/PHyBbsxytBw7gldsWwORy0pGIPMEdC3uHX1w99IXFfDcDsKUzEfWWTqcx4tknoTMZAEDjV/8cB5/hFVSKniKlWhNQL3DHwrNjATiH7ov5DLAIQFo6E5Eb2fpa9P/93/v0/x9/Zyd+Xr0MMEY6GpEvum9SpGLqazM3bXpTOlNQsACcwenFfI7CcgUMlc5D5AVl2xjx5COwhg//3D/f9Hu/jw9+/nPpeES+446FX/48CEDT5OmXQamlCk4toMqk8xB5LTV3Dgb9zV9+6Z8f3rIVr6+5UzoeUV5xx8ICLwD7JlaNcmxniXJQDYWZ0nmI/DTs/h8gfsmZp06vX3UHPmlslI5IJKJQdywsuALwbnl5P9ux5mulqw3MXACWdCYivxVNLcfQb3/rrP/+g1dexab/9gfSMYnEFdKOhQVRAN65YG5RvPiTmzRMtQEWA0hJZyLKp8H/+x+RvOocF7mMwc+XLMPxnTuloxIFRtR3LIxsATCA3ls+fYZ2UG0UagAMls5EJMEeNw4jHnkQ0Pqcv+7A089g25/9hXRcokCK4o6FkSsATROnTYBlVStl6mFQIp2HSNrAv/gq0gtuP++vM7kc1t16O068V3BroYh6xQZMUqtfhX3HwkgUgAPTpo3pcvQibcwqAzVZOg9RUOiBAzDy6Segiop69Ov3PPAg3vqHb0rHJgqNMO9YGNoC0HTFVQNgd9ymlKoDMDvM74XIL/1++7dQ/Fs9f8Qv19aGl2++FR2ffCIdnSh0wrZjYai+NHdfd11CH2u7UQN1BmY+gLh0JqKgUvE4RjzzBKyBA3v1une+/R2882//IR2fKNRiSnWltNoUM9bfTG/c+Ix0njMJfAH4dDGfQZ0BlgMols5EFAaZxQsx4Kt/0uvXdR49ipfn3oqulkgteCYSc3qToqQy/+/UbZt/Ip3ntMAWgKaJ0yZoW9UZo+oBjJDOQxQqSmH42gcRKxnfp5e/ffc/Yfd/3Sf9Logi57MyYP3l1G0bXpbMEqgCcLC8fGynE1sBZdYo4GL3RyQqTMlrrsLgf767z69v++ADrLvlNjidndJvhSiypHcsFC8A+6qqBjrtzhJlUA+FGUHIRBR2Q7/z7ygqd/dAzPb/9ZfY/8ST0m+FKPKkdiwU+bLdV1WVdDpy87TR9QZmDoCYRA6iKIpfegmG3fd918dp2bMHry5cAuOE5qkmotDL546FeSsAprra2rtz3yytTL0BFgLI5OvcRIVk0N/+FVI33+TJsbb84f/AoZd+Jv2WiAqS3zsW+l4AmqZML9cG9QZYBoVhfp+PqJBZw4ZixFOPQdm2J8c7umMHflFTJ/22iApe9x0Lsznra1e8ueF918f0I+ju8qpLtDHLFUwNgAvz/kkRFaj+//33ka1d4ekxN/zWV/Dxxgbpt0ZEp3TfsVC3xL5euXPDsb4cx7MCsHfyzJFQncsAtRJAufQHRFRoVCqFkc89BZ3x9u7aR+vXY+Nv/1/Sb4+IzsACTFrrX17duPmq3r7W9XXCpvKKVcqoWqBrFqAs6Q+DqFBlFi3w/MsfAAZXVaHfZZfi6FtvS79FIvqCHKByQGlfXqv78qLulME3AdwAgF/+RFIsC9kVS307fOma1dLvkIjOQhsc6tPr3J9a7ZN+80SFLnXjbFjDh/t2/OE3zEZ67Fjpt0lEZ2ABTX15nQcFAHul3zxRocvWLPf1+EprlKyql36bRHQGFvCrvrzOi1sALABEgorKJyM+4TLfzzP69nlIDBki/XaJ6As0TGPfXueS0eAtACJB2dqVeTmPjscxrsbbRwyJyL1ObV7vy+vc3wIwXANAJMUeNxbJq2bk7XzjllUjls1Kv20iOsUCzMytW2XWAGjj8BYAkZBsbQ2gvVjK0zN2Oo2xS6ul3zYRnWIr1dbX17q/BeBYLABEAvSA/kjfOjfv5y2prYFVVCT99okIQAz4pK+vdV0ARm9b/x4AbhpOlGeZ6iVQAl/E8YEDMWr+7dJvn4gAaKg+zQA4+VqXFOAAOCD9IRAVEhWPIbNkodj5S1fXQ1mc/UUkTfVxBgDgzRwAgLMAiPIqdestsAYNkjv/qFEYcdON0h8DUcHTpm8zAACPCoCB4ZMARPmilO+Df3qi7I41J/coJSIxlsHWvr7WkwKgjOIVAKI8Sc6cgVhpiXQMZC+6EENm5u8RRCL6MpXQfZoBAHh1C0BzFgBRvmTraqQjfKqMmwQRibEAU9HQ0OfvX08KgAPOAiDKh9hFF6KofIp0jE8NnFqOAZMmSscgKkgxpU64eb0nBcDiNECivCheVRu4++6lq1dJRyAqSBZwxM3rPSkAXU47rwAQ+cwaOgTJG2ZLx/iSYdddi+wFF0jHICo4lsJ7bl7vSQEoaWw8AuCY9IdBFGXZmuVQti0d48uUQsmqOukURAVHKd3nGQCAd3MAAMVdAYn8olIppBcEd/reqFvmIjlihHQMooJi5fC2m9d7VwAMhwER+SWzcD50gHfhU7aNkrr8bEtMRCfZQKOb13u5jRgLAJEftEZm2RLpFOc1ZvEixPv3l45BVDBMkdrg5vUeFgA+CUDkh9QN18MeNUo6xnlZiQTGrVgmHYOoIFhQrmYAAB4WAGMcFgAiH2RXrpCO0GPjVyyHlUpJxyCKvJiCqxkAgIcFQFuatwCIPFY0eRLil0+QjtFjsX79MGbRAukYRJHndgYA4GEBcFSOBYDIY9na4Iz97anS+jroWEw6BlGkWUYfdHsMzwpAc2vrfgCO6CdCFCH22DFIXnOVdIxeSwwbhpG3zJWOQRRplsYet8fwrABM2LGjA8D7kh8IUZRkV64AtJcP6uRP6ZrVUCHNThQGyqhfuT2Gt39CDYcBEXlBFxcjfWt4f4rOlIzH0OuulY5BFFkWsNXtMTwtAEpzFgCRFzJLl0Alk9IxXCm7c410BKLI0raz3vUxvAxkYFgAiFxS8RgySxdLx3Ct/+WXY9DUqdIxiCLHBszUzZtdbQQEeF0AuC0wkWupW+bCGjRIOoYnSu9YLR2BKHIspVzPAAA8LgAailcAiNxQCtma5dIpPDNk5gz0u/QS6RhEkWIBn3hxHG+vADg5XgEgciExoxKxslLpGJ4qWb1KOgJRpNhGu778D3hcALqKOA2QyI0wDv45nxE33Yj02LHSMYgiw1JmtxfH8bQAlGzY8AGANpFPhCjkYhdegMS06C2aU1qjpL5WOgZRZGiNtz05jpehFGAA7Bf5RIhCrri+FlBKOoYvRs+/HUWDB0vHIIoEZXKuZwAAXg8CAqDAWQBEvWUNHYLkjbOlY/hGx+MYH6JdDYmCzLKsDV4cx/MCwEcBiXovu3wpVMQ30Bm3bCli2ax0DKJQswDHixkAgA8FABwGRNQrKplEeuF86Ri+s9NpjK0O/4AjIkkxj2YAAH7cAlC8AkDUG5kFt0MXF0vHyIvxtSthFRVJxyAKLQvKkxkAgB+3AODwCgBRT2mNzPKl0inypmjQIIy6bZ50DKLQsqE8ufwP+FAAHHAWAFFPpa6fBXv0KOkYeVW6ZjWUZUnHIAolDW9mAJw8lsdS7QneAiDqoWxt4a2MT40eheE3RPeJByI/Kct4MgMA8KEADN2xrhkGh/P7kRCFT9HEKxG/4nLpGCLK7rwjsjMPiPxkO44nMwAAX54CAKDAqwBE55Gti97Y354qvvgiDKmqlI5BFDqJrqLXvTqWPwWAjwISnZM9ahSS114jHUMUtwom6h0LcK54c8P7Xh3PpwLAbYGJziVbVwNon/74hcSgadMwYOKV0jGIQsOGdzMAAJ8KAKcBEp2dLi5Get4t0jECgVsFE/WcrbybAQD4VAC0dlgAiM4iU70IKpmUjhEIw2ddh0xZmXQMolCwoA56eTxfCoDDWwBEZ6TiMWSWLpGOERxKobS+TjoFUShYMHu8PJ4vBSCGLhYAojNI3TwHFrfF/ZxR825BcsRw6RhEgeflDADApwIworT0AICuvHwiRCGSXbFMOkLgKNvG+JUrpWMQBZ4Fa7OXx/OlAKi1a3MAPJtXTBQFiapKxC66UDpGII1dsgjx/v2lYxAFWlFX+wYvj+ffc0gGvA1A1E0hD/45HyuZxLhlhbMpElFvWYAzcfv2D7w8pn8FgNMAiT4Vu6AMiYpp0jECbVzNCliplHQMokCKeTwDAPCxABg+CUD0qWzdSs6+P494/34Ys2C+dAyiQLLh/R47vhUADc4CIAIAa8hgpObcKB0jFEpX1UPHYtIxiAJHK29nAAB+XgEwmlcAiABkli+F4pdajySGD8OIm+dIxyAKHO3xDICTx/SJY3EcMJFKJJBZyMvavVF2xxqoAt8ngeiLbAVPZwAAPhYAW+d4BYAKXnrBbdD9+knHCJVMaQmGXnO1dAyiQFHa2uL1MX0rAKM3bvwYQLOvnwhRkGmN7Irl0ilCqeyuO6UjEAWK1zMAAD8fAwSggP1+Hp8oyJKzroU9epR0jFDqf8XlGFg+RToGUSDYUJ7PAAB8LgAGHAZEhau4loN/3Chbs1o6AlEg2DCtfhzX3wJgDAsAFaT4hMsQv/IK6RihNuTqq1B8ySXSMYjE2VCezwAAfC4AWvNJACpMxau4xa0XSvk5EsGyvJ8BAPh+BYDjgKnw2KNGIjnrWukYkTDi5jlIjR0jHYNIlOWoPX4c1+cC4PAWABWc7MoVAJ9j94TSGiW13CqYCpuCecuP4/p7C4DTAKnA6OIs0rfNk44RKWMWLEDR4MHSMYjEKOX9DADA5wLQ1T+5D4Dx8xxEQZJZvAgqlZSOESm6KI7xK5ZJxyASY1k5z2cAAD4XgJJ169oM8KGf5yAKCmXbyFQvlo4RSeNWLIedyUjHIMo7G8qZunnzR34c2/cblYqzAKhApG6eA2vYUOkYkWSn0xi7hOWKCo+t/JkBAOShAAB8FJAKQ7aGl6n9VFJXC10Ul45BlFe28WcGAJCXKwAcBkTRl5hegdjFF0nHiLSiwYMwah4XWFJh0fBnBsDJY/vMKM4CoOjL1nHsbz6UrVnNrYKpoGiN3b4d2+/whlcAKOJiZWVIVE6XjlEQUmNGY/gNs6VjEOWNNvBlBgCQhwJgGa4BoGjL1tUASknHKBhld93Bz5sKhlK2LzMAgDwUAMfYvAJAkWUNHIjUnBulYxSU4osvxmBecaECYVtdG/06tu8FYMzWXxwC0OH3eYgkZFYshYpzZXq+catgKgQW4NsMACA/cwAcKBzw+zxE+aYSCWQWL5SOUZAGTa9Af263TBEXU/BtBgCQlzkAAAwXAlL0pG+fB92vn3SMglW6ql46ApGv/JwBAOSpACgoFgCKFq2R5Xx6UcOun4X0+PHSMYh8o6B9vXqelwJgOA2QIiZ57TWwQ7xPfdt77+GDV16VjuGK0hqlq3kVgKLL0maXn8fP0y0AhwWAIiXsg38OPrQWv/m3/wBMuDfrHH3bPCRHDJeOQeQLDeXbDICTx88DZfEWAEVHfMJlKJp4pXSMPjMdnXj/qR/j2K9+hY9e92WX0bxRto3xNSukYxD5Iq4d32YAAHm7BZBjAaDIyNbXSkdwpfWFn6Dzk08AADu/e490HNfGVi9BvD8XY1L0aKf4dV+Pn4830W5ZLAAUCfbIEUjNulY6hivNax/99H8f3rQZn2xtlI7kipVMYuzSpdIxiDxlGTiTG9cd8fMceSkAF27YcAzA0Xyci8hPmZUrAMuSjtFnHW/uQMeOz99W3HnPvdKxXBu/sgZWMikdg8gzca1b/D5HHrfV4pMAFG46m0Xm9tukY7jS/KNHvvTPPvz5azj61tvS0VyJ9++H0Qtul45B5Bmt4OsMACCPBcBwGBCFXGbxAqhUeH/KdI4cQeuLL53x3+363vel47lWtno1lG1LxyDyhHbUQd/Pka83ozSfBKDwUraNzNIl0jFcaX78SZiOM2/LceinL6F5l6+PHPsuMXwYRs65SToGkScshXf9Pkf+bgFwFgCFWGrOjbCGDZOO0XeOg5bHnjjrvzaOg13f/6F0StfK7roTSufxziaRTyxlfJ0BAOTzCgDHAVOIZVaG+1nzE6++hq6D753z1xx45lmcOOj7VUdfZUpLMOSqmdIxiFyzDTb7fY48XgHQvAJAoZSomIb4xRdJx3DlTIv/vsh0dWHXD8J/FeCC37pLOgKRa5bKbvT7HHkrALkchwFROGVrwz32t2vvPrQ1bOrRr933+BNo+/BD6ciu9L/yCgyYPEk6BlGfxZTK+T0DAMhjAfgoltsPwMnX+Yi8EBs/DokZldIxXGl+eC3g9OyPntPegT33PyAd2bWyO9ZIRyDqMxuqNR/nyVsBmLp5cyeAQ/k6H5EXsvW1gFLSMfrMtLWh5dnnevWapod+hI4jR6SjuzL06qtQfPHF0jGI+sQCPs7HefK9XJa3ASg09MABSM2dIx3DlZZnnoNz7HivXpM7cQJNDz0sHd0dpVCyqk46BVGfKPg/AwDIcwFQnAZIIZJdthQqHpeO4Ur3uf+9seeBh9DV4vskUl+NnHszUmNGS8cg6jULyMtQjrwWAE4DpLBQiQQySxZKx3ClfctWdL6zs0+v7Tx6FHsf6Vt5CAqlNUpWrpSOQdRrGubN/Jwnj4wGrwBQKKTn3QLdv790DFd68ujfuez+wX8h194u/TZcGbNoIYoGD5KOQdQrSqkt+ThPXguA5hUACgOlkFmxTDqFK7mPPsKJl19xdYz2jz/GgSefkn4rruiiOMYtC/d/Syo8Rcg05OM8eS0ADqcBUggkr70asfHjpGO40vLYEzBdXa6P8+6934PT2Sn9dlwZX7McdiYjHYOoR+w8zQAA8lwAOrss3gKgwAv74B/kcmh+/ElPDnXivUM4+Nzz0u/IFTuTwZhF4V7PQYXDhsrb6tu8FoCy7b/8EMCJfJ6TqDfil12KopBPkWv92TrkPvBumt+ue78H08NBQkFVUrcSOhaTjkF0XhbM4XydK8+PAcIA2J/PcxL1Rra+VjqCa24X/33peLv34P2Xfib9tlxJDB2KUfNulY5BdF6WUgfyda6875vJXQEpqOwRw5G6/jrpGK50vrsL7VsbPT/uzv+8BzBG+u25Urq6nlsFU+BZxuRlBgAgUAAM+CQABVOmZjlgWdIxXGl+eK0vX9THfv1rfPiLX0q/PVfS48dj2PWzpGMQnZOC2pGvc+W/ABjOAqDg0ek00rfPk47himltRctzL/h2/J3f+U/pt+ha2R2rpSMQnZNldM+27vRA3guA1hwHTMGTXrwQOuSPijU/9TRMq3+biH2ybTsOb87LfBLf9JswAYOmV0jHIDojBcBp1XmZAQDwFgARlG0ju2yJdAx3jEFLH+f+98a7371H+p26VrZmtXQEojOylMpV7txwLF/ny3sByEGzAFCgJG+cDWv4cOkYrrRtbEDnnibfz/PhL9fj6I683aL0xeCqSvSbcJl0DKIvsYG87sCV9wJQhA4WAAqU0A/+gfeP/p3Lu/d8T/rtula6epV0BKIvsaE+zuf58l4ARm7e3Aogr2+S6GyKppYjfsnF0jFcyR06hBOvvpa38x362cs4vrNvuwwGxfAbZiM9Ltzjnil6tELeZgAAAgUAABTXAVBAZOsi8NP/I48D+ZzUZwx23ft96bftitIapavqpGMQfY4F5G0GACBUAAz4JADJs8eNQ3JGlXQMV0xHJ5oFduw7+NzzaN0b7j/Go26bh8SQIdIxiD6VzxkAgFABAKcBUgAU168EQj4ZrvXFn8I5/Enez2scB7t+8EPpt++KjscxPgLrPyg6LEdtzuf5hG4BOOH+0YFCTw8cgNTcOdIxXMvn4r8v2v/Uj9H2wQfSH4ErY6uXIFZcLB2DKO8zAACpWwCGVwBIVnbpEqiiIukYrnT8+jfoeFPukTynowO7f3if9Mfgip1OY9yyaukYRHmfAQBIFQCLawBIjorHkV4c/v3hmx98WDoC9j7yKDo+yf8tCC+Nr1kBK+RlkMIvBjTn+5wiBcBWOV4BIDHp226FNXCgdAxXnGPH0friS9IxkDtxAnseeEg6hivxgQMxesF86RhU4PI9AwAQKgAjx48/CKBT4txU4JRCZsUy6RSutTzxJExbm3QMAMCeBx5E5/Hj0jFcKVlVBxXynSAp3JTJ7wwAQGoR4Nq1OUC9J3FuKmzJq2ciVjJeOoY7jnPy2f+A6Gpuxt61cosRvZAaNQoj5twkHYMKmKXzOwMAEHsMEACHAZGAbO1K6QiunfjFL9F1IO8/LJzT7v+6H7mAXJHoq7I1qwGlpGNQgdLAmwLnFMInASjP4pdegqLyydIxXJN89O9sOg4fxr7Hn5CO4Ur2ogsx5KqZ0jGoQNnGzusMAECwACjNWQCUX9m68P/037X/ANpe3ygd44x2ff8HcDrDvbSHWwWTBAXgeFdzXmcAAIIFwBg+Ckj5Yw0biuTsWdIxXGte+0h+5/73Qtuh93HwmWelY7gysHwKBkyaJB2DCoylVG7Wjh2F8RggABiOA6Y8ytasgLJt6RiumPZ2tDz1jHSMc9r53XtgAlpQeqp0DbcKpvySmAEACBYAyzgsAJQXKpVCesFt0jFca33uBTjH8joorPcZ9+3HoRd/Kh3DlWHXXoPsBRdIx6ACYiv1kcR55a4AJCzeAqC8yCxaAJ3JSMdwrfmRx6Qj9MjO794DGCMdo++UQunqeukUVEC0o0Qe6xErAGPWrz9sgHBPD6HgsyxkVyyVTuFa+7bt6Hj7V9IxeuT4b97BBz9/TTqGKyPn3ozkiBHSMahA2BrvSpxXdC9UBfAqAPkqdeNsWMOHS8dwLYiP/p3Lzu/8p3QEV5Rto6S+VjoGFQplRHb1kt4MnQWAfJWtWS4dwTXnkyM48bOXpWP0ypE33sTHG/P+VJOnxixaiPiAAdIxqABo6E0y5xVkAC4EJN8UlU9BfMJl0jFca370cZiO8D1fv/O790hHcMVKJDAuAvtGULApAFo7Im1Z9haA4hUA8k+2rkY6gnu5HJofC87c/974eMNGfNK4TTqGK+OXL4OdTknHoAizleqaunlzq8S5ha8AcD8A8oc9biySM2dIx3DtxLpXkXv/A+kYfbbre9+XjuBKrF8/jFm0SDoGRZgNtEidW7YAGF4BIH9ka2sALb3Exb3jIVv890Xvv/Iqjr+zUzqGKyX1tdCxmHQMiiipGQCAcAGwYPEKAHlOD+iP9K1zpWO41rl7D9o3b5GO4Y4xePeee6VTuJIYOhQjbwn/7ycKJuWo/VLnFi0Abcf67wMQ4okhFESZ6iVQRUXSMVxr/tEj4R6oc8p7L/wELU1N0jFcKbtjNVQErihR8FhKZgYAIFwALtz5XDsMwnuDkwJHxWPILFkoHcM109qK1meek47hzXtxHOz6/g+lY7iSHj8ew667VjoGRZBlOW9KnVu+0ipuCkTeSd16C6xBg6RjuNby9LNwWsTWBnlu/1M/xon33pOO4UrZXXdIR6AI6uo0m6XOLV8AYLgQkLyhVCQG/wBA8yPhfPTvbExXF3b/1/3SMVzpN2ECBk2bJh2DIkQBKIrLDAECAlEAOAyIvJGcOQOx0hLpGK61NWxC57titwV9s+/Rx9Bx+LB0DFdK71gtHYEixIbcDAAgCAXAKF4BIE9EYvAPwjf3v6dybW3Yfd8D0jFcGTKjCv0uu1Q6BkWErdAseX7xAsBhQOSF2EUXomhquXQM13IffoS2V8O9k965ND30MDqPh3sT0NLVq6QjUETYSn0seX7xAqAtzQJArhWvisbObc2PPArT1SUdwzddLS1oeuhH0jFcGX7jDUiPHSsdgyJAcgYAEIACkDMdvAVArlhDhyB5w2zpGK6Zzk60PP6UdAzf7bnvPuRaxW57uqa0RsmqOukYFAGWMqJjMsULwLjNmw8Bpl06B4VXtmY5lG1Lx3DtxEs/Q+5j0SuCedFx5Cj2PvaEdAxXRt9+GxJDhkjHoJDTlhGbAQAEoAAowADqgHQOCieVSiG94HbpGJ6I6uK/M9n1ve/Dae+QjtFnOh7HuJoV0jEo7HJK7BFAIAAFAABg+Cgg9U1m4XzobFY6hmudv3kH7dvekI6RN+0ffYQDTz8tHcOVccuqEYvA7z2SM2xAlgUAmgWA+kBrZJYtkU7hieMPr5WOkHfv3vs9mFxOOkaf2ek0xi6tlo5BIRVTqqtk3bo2yQzBKACG0wCp91I3XA971CjpGK45x4+j9YUXpWPkXev+A3jv+RekY7hSUlsDKwIbT1H+2UZ2BgAQkAJgABYA6rXsymjcg2158mmYEyekY4jY+d17YBxHOkafxQcOxKj50ViDQvllafWRdIZAFABtOAuAeqdoymTEL58gHcM9Y9D8WLTm/vdG867d+GDdK9IxXCldXQ9lWdIxKGS0I7/4PRAFwHFyLADUK9naaIz9bfvl6+hqKuzf/ju/85+AMdIx+iw1ahRG3HiDdAwKGekZAEBACkAqEy/svwGpV+yxY5C8eqZ0DE8U0qN/Z3P07V/ho9c3SMdwpfSONYBS0jEoRGyjt0tnCEQBGPKLXxwHcEQ6B4VDduUKQAfit64rXe8dwolfrpeOEQjvfvde6QiuFF98EYbMqJKOQWGiIfoI4MkIwcGrAHReurgY6VvnSsfwRPOPHgFCvADOSx9v2oRPtjZKx3CFWwVTbwzpn94inSEwBUDxSQDqgczSJVDJpHQM10x7O1qe/LF0jEB5957vSUdwZdDUqRgwaaJ0DAqBIMwAAAJUAIzhtsB0bioeQ2bpYukYnmh94UU4R49KxwiUD37+cxx9623pGK6UrqqXjkAhEDMIxJ7YwSkAWvEKAJ1T6pa5sAYNko7hiea1j0pHCKRd3/u+dARXhs26DpmyMukYFHBaQXwGABCgAqCN4hUAOjulkK1ZLp3CEx1v7kBHyH/S9cuhn76E5l27pGP0nVIo5VbBdB6Wkp8BAASoABiT4xUAOqvEjErEykqlY3iCj/6dnXEc7Pr+D6VjuDLq1luQHDFCOgYFmALEZwAAASoAOWPxCgCdVVQG/zhHjqD1xZekYwTagWeexYmDB6Vj9JmybYyvXSkdgwIs5uhAbP0ZmALwsdV5AEB4twYj38QuvACJaVOlY3ii+fEnYTo6pGMEmunqwq4fhPsqwNglixDv3186BgWUhdxG6QxAgArA1M2bOwEcks5BwVNcXxuNKWuOg5bHnpBOEQr7Hn8C7R8FYp1Un1iJBMatWCYdgwIqcXGZ+AwAIEAFAAAMhwHRF1hDhyB542zpGJ448erP0XXwPekYoeC0d2D3ffdLx3Bl/IrlsFIp6RgUMHGFzglr1wbiMmCgCoBiAaAvyC5fChWLScfwBBf/9U7TQz9Cx5Ej0jH6LNavH8YsWiAdgwLGgmqWznBaoAoAOA2QulHJJNIL50vH8ETX3n1o2yg++jtUcidOoOmhh6VjuFJaXwcdkQJL3rCgPpTOcFqgCoBRHAZEn8ksuB26uFg6hieaH14b6i1vpex54CF0tbRIx+izxLBhGDn3ZukYFCCWQiBmAAABKwAKDm8B0ElaI7N8qXQKT5jWE2h5+lnpGKHUefQo9j4S7qmJpXesgYrA7pXkDW3UO9IZPs0iHaA7B5oFgAAAqetnwR49SjqGJ1qefQ5Oc2Bu+4XO7h/+F3Lt7dIx+ixTMh5Dr71GOgYFhAXzpnSG0wJVAIqcGG8BEAAgW7tCOoJnmh95TDpCqLV/9DEOPPmUdAxXyu66QzoCBYRtTIN0htMCVQBGbP35hwBapXOQrKJJExG/4nLpGJ5o37IVne8EYupnqL177/dgurqkY/RZ/8svx8Cp5dIxKACCMgMACFgBAADDJwEKXrYuGmN/AT7655UT7x3Cweeel47hStma1dIRSFiQZgAAASwAigWgoNmjRiF5zdXSMTyR++gjnHj5FekYkfHuPffCOI50jD4bctVM9Lv0EukYJMiCPi6dobvAFQBwGFBBy9bVABFZMd386BOhvmwdNM279+D9n70sHcOVklX10hFIkA0Ear514P6mNeAsgEKli4uRnneLdAxv5HJoeeJJ6RSRs/M73w31PIURc25CauwY6RgkxNLYL52hu8AVAGUMrwAUqEz1IqhkUjqGJ1pfehm5DwIz8Csyjv361/jwl+ulY/SZ0hqldbXSMUiIcoIzAwAIYAEwFtcAFCIVjyGzdIl0DM9w8Z9/dn77O9IRXBm9YD6KBg+WjkECtMIb0hk+l0c6wBfZyPEKQAFK3TwHVkT+Uux8dxfaG7dJx4isT7Ztx+HNgXmSqtd0PI7xNculY5AA2zGB2hAkcAXAicX2AgjvTT7qk2yE9k7n3H//vfvde6QjuDJu+TLEslnpGJRnyYtLt0pn6C5wBWDM+vUnAHwsnYPyJ1FVidhFF0rH8ITT3IyWkD+vHgYf/nI9ju54SzpGn9npNMZWL5aOQXkUtBkAQAALwCm8DVBAojT4p+XHz8C0npCOURDevede6QiujK9dCauoSDoG5UnQZgAALAAkLHZBGRIV06RjeMMYNK/l3P98OfSzl3F8Z3jHLBcNGoRRt82TjkF5YgOBeywokAXAKMMnAQpEtm4loJR0DE+0bWxAV1OTdIzCYQx2fe8H0ilcKV2zGsqypGNQHlhGBWoGAADY0gHORBvs4xKq6LOGDEZqzo3SMTzTvnkL4iEZ9ZpxcrBMeMfqntbS1ITOo0cR69dPOkqfpEaPwvDZ1+O9n7woHYV8piwEagYAENACYKD38kGA6MssXwoVi0nH8Ey/3/1t9Pvd35aO0SPDpAPQp8ruuhPvvfhTPjkScbZRgZoBAAT0FoA2DtcARJxKJJBZOF86BpG44osvwuDKSukY5LfOzgbpCF8UyAKAHPcDiLr0gtugQ3rZlshrZXeslo5APlIAWnY0BmoGABDQAjDq4rHvAeiUzkE+0RrZFZyERnTaoIppGDDxSukY5BNbqc5ZQOC2Bg1kAVBr1+YUcFA6B/kjOeta2KNHSccgChRuFRxdNlTgZgAAAS0AAGA4CyCyimujM/iHyCvDr5+FTGmpdAzyQRBnAACBLgDcFjiKiiZegfiVV0jHIAoepVC6qk46BflAmWCuawtsAVBGsQBEULZ2pXQEosAaNe9WJEcMl45BHrO1CdwMACDABQA6mI2J+s4eNRLJ666RjkEUWMq2MX4lb5FFjVbYLp3hjLmkA5yNMQ4LQMRkV64AdGB/yxEFwtglixHv3186BnnIdJnAzQAAAlwANHgLIEp0cRZpbnxCdF5WMolxy5ZKxyCPKAAn3tiyTTrHmQS2AHQ57SwAEZJZvAgqlZSOQRQK42pWwEqlpGOQB2II5gwAIMAFoKSx8QiAY9I5yD1l28hUL5aOQRQa8f79MGYBR2VHga1VYL/HAlsAAAAKXAcQAamb58AaNlQ6BlGolK6qh47QZlmFSptgzgAAgl4AjGEBiIBszTLpCEShkxg+DCNuniMdg1zSRu2XznDWbNIBzkVxIWDoJSqnI3bxRdIxiEKp7I41UHxyJtRi2vm1dIazCfTvLBPQ6UnUc9k6PtNM1FeZ0hIMufoq6RjkgpPTb0hnOJtgFwA4vAIQYrGyMiSmV0jHIAq1C37rLukI5EJMY6N0hrMJdAHQlmYBCLFsXQ2glHQMolDrf8XlGDhlsnQM6gMFoHnbJl4B6AtjNG8BhJQ1cCBSc26UjkEUCaV3rJaOQH0Qg+oI6gwAIOAF4Hjb0X0AHOkc1HuZFUuh4nHpGESRMPTqq1F8ySXSMaiXLKjj0hnOJdAFYMKOHR0APpDOQb2jEglkFi+UjkEUKaX1tdIRqJdsbQL9/RXoAgAAMOA6gJBJ3z4Pul8/6RhEkTJi7s1IjRktHYN6QSO4MwBO5gs4pVkAQkVrZGuWS6cgihylNUpqeRUgTGyY30hnOJfAFwDOAgiX5LXXwOZPKUS+GLNwAYoGD5KOQT2kgUDuAtgtX9A5LAAhwsE/RP7RRXGMW84rbKERsxqkI5xL4AuAMhwHHBbxCZehaOKV0jGIIm38imWwMxnpGHQeSgHTGhq2S+c4l8AXAGM4DTAsslylTOQ7O5PB2CXcXjvobKM6VMAfYw98Aegq4jTAMLBHjkBq1rXSMYgKQkldLXQR52wEWUzhmHSG8wl8ASjZsOEDAG3SOejcMitXAJYlHYOoIBQNHoRR8+ZJx6BzsEMwwybwBUABBkCgn6UsdDqbReb226RjEBWUsjWruVVwgCkV7BkAQAgKAAAYgE8CBFhm8QKoVFI6BlFBSY0ZjeE3zJaOQWehTbBnAAAhKQB8EiC4lG0js3SJdAyiglR21x3ccTOgbIVAPwEAhKQAAIYFIKBSc26ENWyYdAyiglR88cUYPL1COgadgaNjG6QznE8oCoBSnAYYVJmVK6QjEBW00jWrpSPQFygFTN+y4U3pHOcTigIAsAAEUWL6NMQvvkg6BlFBG1w5Hf2vvEI6BnUTAwI/AwAISQFwOAwokLK1K6UjEBGA0vo66QjUjQ0V+BkAQEgKQLIjyQIQMLHx45Comi4dg4gADJt9PTKlJdIx6BQrBDMAgJAUgKE71jUD+EQ6B30mW1/L1cdEAaG0RkkdR3EHhdLhuG0digJwCq8CBIQeOACpuXOkYxBRN6Nvvw2J4XwiJwi0g8DPAABCVQD4KGBQZJcthYpzDjlRkCjbxvgaPpUTBGGYAQCEqgCE45JK1KlEApklC6VjENEZjFtajXj/ftIxCp7R9kbpDD0RmgJgFMcBB0F63i3Q/ftLxyCiM7CSSYxdWi0do6BphGMGAADY0gF6SsPsNeCiM1FaI1uzXDqFZ44/9CN0bN0mHUPEB04ObTDSMQJn9PzbMeSqmdIxXBm/Yjl2//A+5Nq4iaoEW4VjBgAQogLgQO3l17+s5DVXwR43VjqGJ0x7O459+z/hHDsuHUXEh7kuNJtQ/B2VV63794e+AMQHDsTohfPR9ODD0lEKkg11VDpDT4XmFkDOsXgLQFi2tkY6gmdaX3ixYL/86eyOvvU2PtkWivVb51S2ejWUHZqf7yLFggrFDAAgRAWgpF/8AIAu6RyFKn7ZpSiaPEk6hmeaH31cOgIF1J77H5CO4Fpi+DCMnHOTdIyCpEO0e21oCoBat64LwHvSOQpVtj46Q0Y639mJjjd3SMeggDr005fQ9v770jFcK7vrTigdmr/iI8PWKhQzAIAQFQAAUDC8DSDAHjEcqeuvk47hGf70T+dicjk0/egR6RiuZUpLQr+eIZSUCc09pFAVAIPwXFqJkkzNcsCypGN4wrS1ofX5n0jHoIDb98ijyLW3S8dwreyONdIRCk7OQihmAAAsAHQeOp1G+vZ50jE80/r8T+Ac5+I/OreOI0dw8NnnpGO4NmDyJAyYNEk6RsHQAGZs2vSWdI7e5A0NDYe3APIsvXghdCYjHcMzzY89IR2BQmLPfQ8AJvyzEsruWC0doWDEFNrDMgMACFkBMA7HAeeTsm1kly2RjuGZznd2omNHaMo5CTu+cyc+3rxZOoZrQ6+5GtkLLpCOURAsqGPSGXojVAXAsTVvAeRR8sbZsIYPl47hmeZHHpOOQCHTdP+D0hHcUwqla1ZJpygINlSoHh8JVQGwdY4FII+iNPjHnDiB1udekI5BIfP+ulfQuv+AdAzXRs69GcmRI6VjRJ424dq2PlQFYPTGjR8DaJHOUQgS06YifsnF0jE80/rCi3Ba+FuHesc4Dpoe/pF0DNeUZaEkQrM8gkppHZoZAEDICgAAKHBXwHzI1kXnp3+Ai/+o7/Y//gRyra3SMVwbs3AB4gMGSMeINK1zoZkBAISwABiE6xJLGNnjxiFRVSkdwzOdv3mHi/+ozzqPH8eBp5+RjuGalUhgfIR28wwkE9sgHaE3QlcAoPgkgN+K61cCERohysl/5Nbu+x6AcULzdNdZjVu+DHY6JR0jkjSA6Vs3/Eo6R28zh4oynAXgJz1wAFJz50jH8Ixp5eI/cq+lqQkfvR6qH+7OKFZcjDGLF0vHiCQbKlQzAIAQFgBOA/RXdukSqKIi6RieaX3hJ1z8R57Y80AEHgkEUFK3EjoWk44ROZZCqGYAAGEsAMZhAfCJiseRXrxQOoanuPiPvPLha79A8+490jFcSwwdilHzbpWOETmxkM0AAEJYACxOA/RN+rZbYQ0cKB3DM52/eQcdb70tHYOiwhjsjcAjgQBQurqeWwV7TANN0hn6kDlcOgek9gII/4DuoFEKmRXLpFN4qnnto9IRKGL2P/UUupqbpWO4lh4/HsOunyUdI1IUTKhmAAAhLAAl69a1AeYj6RxRk7zmKsRKxkvH8IxpPYHWF16UjkER09XSin1PPCUdwxPcJMhbllLbpDP0VugKwElcCOi1KI39BYCW51/g4j/yxZ77o/FIYL8JEzCoYpp0jMiwrHjoHhNhASDEL70ERVMmS8fwVAsX/5FPThw8iA9//pp0DE/wKoA3FICpm9eHagYAENICoIzhQkAPZetWSkfwVMdbb6Pj7dD9WaQQ2X3/A9IRPDG4qgr9LrtUOkboxaDapTP0RSgLgNHcD8Ar1rChSM6O1mIgPvpHfvt4w0Yc/8070jE8UbpmtXSE0IsBR6Uz9EU4C4DhLQCvZGtWQNm2dAzPcPEf5UvTww9LR/DE8BtmIz12rHSMUNMKoZsBAIS0AFgwLAAeUKkU0gtuk47hqZbnnoeJwM5tFHwHfvwMOo6E8ge/z1Fao2RVvXSMULNCui4tlAXAMXYoP+ygySxaAJ3JSMfwFBf/Ub7k2tux77FobDQ1+vZ5SAwZIh0jtCwglIuOQlkAxmz9xSEAHdI5Qs2ykF2xVDqFpzp2vIWOX/1aOgYVkKYHH4Lp6pKO4ZqOxzF+ZbQeBc4nC+GbAQCEtAAowIHCAekcYZa6cTas4cOlY3iKi/8o39o++ADvv7xOOoYnxi5dglg2Kx0jlGJFOnQzAICQFgAAgOGTAG5ka5ZLR/CUaW1F609+Kh2DClBUHgm002mMXRatq4L5oABM2rgxdGOAgRAXAANwHUAfFZVPQXzCZdIxPNXyLBf/kYxPtjbi6I63pGN4omTlClgR2g48H+LQbdIZ+iq0BUCFdNVlEGTronevr+XxJ6UjUAFreigajwTGBw7E6AXzpWOEihXSGQBAiAsAjMNbAH1gjxuL5MwZ0jE8xcV/JO3g8y+g/aOPpWN4omRVHZRlSccIDUuHcwYAEOIC4HAaYJ9ka2uAiO0DzsV/JM3p6MDeR6Ox/XRq1CiMmHOTdIzQsEJ8Ozq03wQWrNB+6FL0gP5I3zpXOoanuPiPgmLvjx6B09kpHcMTZWtWA0pJxwgFyyC0lx9DWwDabKdJOkPYZKqXQEVsgU/LM89x8R8FQvtHH+HQT6Ixhjp70YUYctVM6RghoRulE/Q5uXSAvrpww4ZjAI5J5wgLFY8hs2ShdAzPcfEfBcnu++6XjuCZMm4S1DMqnDMAgBAXgJP4JEBPpW69BdagQdIxPNXx5g50/DqUj99SRB19620c2f6GdAxPDCyfggGTJkrHCDQLMJWNG0K7LWSoC4Ax3BSoR5SK3OAfAGh+NBpz2Cla9kRkMBAAlK5eJR0h0GyodukMboS6ACjFJwF6InnVTMRKS6RjeMppbkbriy9JxyD6kvde/Cna3g/tk2GfM+y6a5G94ALpGIFlKRPaGQBAyAsAoFgAeiCKg39an30e5sQJ6RhEX2JyOexd+4h0DG8ohZJVddIpAsuGOiSdwY1QFwDeAji/2EUXoqh8inQMzzU/8ZR0BKKz2rv2UeTaQ311+FOjbpmL5IgR0jECydI61N9BoS4AGuH+8POheFWtdATPdbzxJjq5+I8CrOPIEbz33PPSMTyhbBsldSulYwSSNia0MwCAkBcAx+7iLYBzsIYOQfKG2dIxPMfFfxQGu//rfsAY6RieGLN4EeIDBkjHCB6jt0lHcCPUBaC5tXU/AEc6R1Bla5ZD2bZ0DE9x8R+FxfGdO3F48xbpGJ6wEgmMW86tgr8kxDMAgJAXgAk7dnQACPUiDL+oVArpBbdLx/Bc6zPPwbSFdvdNKjB7HnhQOoJnxq9YDiuVko4RGGGfAQCEvACcwtsAZ5BZOB86m5WO4bnmJ38sHYGox95/eR1aDxyQjuGJWL9+GLs4etNE+8oK+QwAIAIFQHEa4JdpjcyyJdIpPNe+7Q0u/qNQMY6DvQ+vlY7hmZK6WuhYTDpGIMSUOiKdwa3QFwA+CvhlqRuuhz1qlHQMz7Vw218KoX2PPY5cRGZWJIYNw8hborWjaF9ZMKGf9hT+AqB5C+CLsitXSEfwnHP8OFp/ysV/FD6dx4/jwNPPSMfwTNkdq6F06L86XNNKh35H2tD/V9SG0wC7K5oyGfHLJ0jH8FwLF/9RiEXpkcD0+PEYdt210jHEWUCoZwAAESgAxji8BdBNtjZ6Y38BoOUxbvtL4dXS1ISPXn9dOoZnyu66QzqCOAe6UTqDW6EvAB05mwXgFHvsGCSvnikdw3Pt27aj8913pWMQubLn/oekI3im34QJGDRtmnQMUXErF+oZAEAECkDZ9l9+CCAaK2xcyq5cAUTw3hwX/1EUfPDaa2jZs0c6hmdK71gtHUGMBZipmzeH/qeS0H9bKMAA2C+dQ5ouLkb61uitzj25+O9n0jGI3DMGTQ/9SDqFZ4bMqEK/Sy+RjiEiCjMAgAgUAICzAAAgs3QJVDIpHcNzLU8/y8V/FBn7n3oKXc3N0jE8U7J6lXQEEXYEZgAAESkABqagnwRQ8RgySxdLx/BFy+Nc/EfR0dXSiv1PRmcr6xE33Yj02LHSMfLOjsgI+mgUAIOCvgKQumUurEGDpGN4rr1xGzrf3SUdg8hTex58CMaJxh5mSmuU1Edvy/Hz0QahnwEARKQAaF3AswCUQrZmuXQKX3DxH0VR6779+PDnr0nH8Mzo+bejaPBg6Rh5pS39K+kMnrwP6QBeMCjcccCJGVWIlZVKx/Ccc/w4Wl96WToGkS+itEugjscxPoLTR8/5nmG2SWfw5n1EgFPA0wCzdREd/PPjZ7j4jyLro9c34PhvQr2T7OeMW7YUsQjuPnpWOR2JqU6RKABx1RmJ+zG9FbvwAiSmlkvH8EXLE9FZKEV0Jk0PR+eRQDudxtjq6O1AeiYWYKZv37hbOocXIlEARm7e3AqDw9I58q24vhZQSjqG59q3NnLxH0XegaefQceRo9IxPDO+tgZWUZF0DN/FtIrMpclIFAAAMLqwngSwhg5B8sbZ0jF80fzo49IRiHyXa2vD/sefkI7hmaJBgzDq9tukY/hOGxWZ1haZAqAK7FHA7PKlULGYdAzPOUeP4gQX/1GBaHr4YZhcTjqGZ0pXr4KyLOkYvrKA96QzeCUyBQAFNA1QJZNIL5wvHcMXLU8/C9PRIR2DKC9OvHcI77+8TjqGZ1KjR2HEjTdIx/CVhWjMAAAiVAAUnIJ5EiCz4Hbo4mLpGL7g4j8qNHvuf0A6gqdK71gTybVJp1lAJGYAABEqAMagMAqA1sgsXyqdwhftm7eic1ckFtcS9djhLVtxdMdb0jE8U3zxRRgyo0o6hm80TKN0Bu/eS0QYSxfELYDU9bNgjx4lHcMXzZz8RwUqSo8EAtHeKrhTm0jMAAAiVABslSuIApCtjebELefoUZz4GRf/UWE6+NzzaP/4Y+kYnhk0dSoGTJooHcNzFmBmbt3KNQBBM3L8+IMAuqRz+Klo0kTEr7hcOoYvWn78DBf/UcFyOjqw79HHpGN4qnRVvXQEz9kqOjMAgAgVALV2bQ5QB6Vz+CmqY38BoOXJH0tHIBLV9PBaOJ2d0jE8M2zWdciUlUnH8JSt1BHpDF6KTAEAABgT2YWA9pjRSF5ztXQMX7RtaODiPyp47R99hEMv/lQ6hneUQml9nXQKT2mDQ9IZvGRLB/CUxl4YzJSO4YdszXJAf76vma4umNYTn/5/5/ixz/5d6wmYrpN3RExHZ7eNdQyc48c/+3UtrZ8OIjEdHTBt7acOloNpafns2M0twKk9zE17O0z7ycv1JpeDae326443A8ac/HcnTsB0nsrQ1QlzolvWY59lIKKTdn73Xpw49D7sVArKPvnXs5VMQJ8a+qXjcViJxMn/bduwUikAgLI07HTm0+PEij/bmMfOZKC0zM96I2+di9/8+7+j7dD7Iuf3mgb2SGfwUqQKgILZaxDN50+P/p9/x9F//zZMWxtMR3QuExLRZ5rffRe//t//6tvxrVQK+nSxSCSg418uFsq2YZ8uFlrDzpytWGSh9Mm/b63kFwtL/OT/Loqj/4QJOBSVAmCiMwMAiFgBMBHeFtjp9tM4EVFf5FpbcXrwcOexY66OVYgsg63SGbwUqTUApoDGARMRUX6phI7MDAAgYgXAcnKRvQJARERyLMBUNDRE6jsmUgXAJG1eASAiIs9FbQYAELECMGb9+sMAmqVzEBFRtMSAT6QzeC1SBeCUSF2iISIieRoqUjMATr6n6OFtACIi8pQCIrMHwGmRKwAmwtMAiYgo/yzAxJV5TjqH1yI1BwAAtFb7Tg2iIyIiciWr1dtxHVtesWXDduksXotcAVCW+Zbp0kMA8xUAMek8REQUPimlPkxofVfV1k1PSWfxSzTn5gLYP7HiImPpvzEwS6L8Pon6YneuC83GkY5BFDhFSrVmLPxZ5ZYt/yKdxW+R/2LcP2V6pWNwN1Q0Nwki6gsWAKLPs5XKZaAf7Ni2ac0soEs6Tz5EvgAAgAHU3vKKJcqovwdQKp2HSBoLANFJGjAZWK9mdGbB5MZ1R6Tz5FNBFIDTdkyYEM8kMr+jDL4OoL90HiIpLABEpxb4qdiSyq0b3pLOIqGgCsBp+6qqBqIj98fG4A8AVSSdhyjfWACokKWg309Dr6zY3vCSdBZJBVkATts3afqF0OpvuVCQCg0LABWiBFRLRqn/OX3b5v9POksQ8EsPwL7yyunGMf/IhYJUKFgAqJDElOrKQN9btW3T7yiAv/FPYQE4hQsFqZCwAFAhsKBMBvp5u9VaXrlzwzHpPEHDAvAFOyZMiGeKMqsV8LcABkvnIfIDCwBFmQKQ0ert4ri9YNLGjb+RzhNULABnwYWCFGUsABRVaaX3p7Surdja8Ip0lqBjATiPXZNnjIup3F8boBb8vCgiWAAoahIKzRmt/2j61s3/IZ0lLPiF1kP7yiunG2PuBnCVdBYit1gAKCriUB1phW/N2LblD6WzhA0LQC81Tam8TcH5Z0CVSWch6isWAAo7GzBpWM935k4snbVjR7N0njBiAeiDTeXlsSHGXqNg/gZQQ6TzEPUWCwCFlQaQtfTrcVsvrWho2CedJ8xYAFxouuKqATre8SdcKEhhwwJAYZRWen8CWFG5bfNr0lmigAXAAwfLy8fmjP03XChIYcECQGGSVPpwWqvfm75104PSWaKEX1Ye2je1qsI4zt0ArpbOQnQuLAAUBnGFjjQUF/j5hAXAB1woSEHHAkBBZgFORuknRw3I1pSsW9cmnSeqWAB8woWCFGQsABREpxf46UR8yYz16w9I54k6FgCffbZQUP0+gIR0HiKABYCCRQHIKL0rEdeLKxoaGqXzFAoWgDzhQkEKEhYACoqk0ofTDn57+hub10pnKTT8IsqzvZOmTYPW/wguFCRBLAAkLQ7VnrHx91VbtnxdOkuhYgEQcnKhoPknABdIZ6HCwwJAUmylchnoB/tfVHLnhLVrO6TzFDIWAEGnFwoC+GsFDJXOQ4WDBYDyTQEotvTr/TrtBVe8ueF96TzEAhAIXChI+cYCQPmU1ertuI4tr9yyYbt0FvoMC0CAHJg2bYyT03/LhYLkNxYAyoek0ocz0L9Vsa3hMeks9GX8kgmgUwsF7wZwjXQWiiYWAPJTQqmWtIU/r9yy5V+ks9DZsQAEGBcKkl9YAMgPpxf4dWzbtGYW0CWdh86NBSDguFCQ/MACQF7SgMnAejWjMwsmN647Ip2HeoYFICR2T5rU37bif8qFguQFFgDySlart+MqtqRy64a3pLNQ77AAhMyphYJ/boC7cHJ0NlGvsQCQWyno99PQKyu2N7wknYX6hgUgpPZOrpgKhbsBda10FgofFgDqqwRUS1rrP6ls3PQt6SzkDgtAyDVNrrxBafMvMJggnYXCgwWAeiumVFcG+t6qbZt+RwH8zRMBvIQccuO2vv7TD9A12QBfMcAH0nmIKFosKNMP1nPFLbFBM7Zt+gq//KODVwAi5IMJ12VOFLX9DwXzJ+BCQToHXgGg81EAskpt09rMn7l1a5N0HvIeC0AEcaEgnQ8LAJ1LWun9Ka1rK7Y2vCKdhfzDAhBhXChIZ8MCQGeSUGjOaP1H07du/g/pLOQ/FoAC0DS58gal8M+AuVw6CwUDCwB1F4fqSCt8a8a2LX8onYXyh5eHC8C4ra//9APVOcUAX4EBt+EkIgCADZh+sJ6zc+2D+OVfeHgFoMB0Wyj4xwCS0nlIBq8AFDYNIGvp1+O2XlrR0LBPOg/JYAEoUPuvnD7a2PgLLhQsTCwAhUkBSCm9PwGsqNy2+TXpPCSLBaDANU2ZXq4M7obCddJZKH9YAApPUunDaa1+b/rWTQ9KZ6FgYAEgAFwoWGhYAApHXKEjDcUFfvQlvPRLAE4uFBxTnJjMhYJE0WABTj+lH79gQL9+/PKnM+EVAPoSLhSMPl4BiK7TC/x0Ir5kxvr1B6TzUHCxANBZdVsoeCcASzoPeYcFIHoUgIzSuxJxvbiioaFROg8FHwsAnVfTlOnlAL6pgFnSWcgbLADRklT6cNaor0zbvukR6SwUHiwA1GMnFwqafwJwhXQWcocFIBriUO0ZG39ftWXL16WzUPhwESD12MmFgsmTEwWBQ9J5iAqVrVSuv7LuG3lxWTG//KmveAWA+uTQlVem2+3UH3GhYDjxCkA4KQBZWK9Y6diiGevXH5bOQ+HGAkCu7JtYNQqW8zUuFAwXFoDwyWr1tmXrpTM3bXpTOgtFAwsAeaJp4rQJ0PobSuEW6Sx0fiwA4ZFU+nBa5e6c3tj4hHQWihYWAPIUFwqGAwtA8CWUaklb+PPKLVv+RToLRRMLAHnOAHrv5IpapdQ/ABgunYe+jAUguGylchnoBzu2bVozC+iSzkPRxQJAvjl05ZXpdiv1e0qZPweQkc5Dn2EBCB4LMBlYz6d1pmZy47oj0nko+lgAyHdcKBg8LADBktXq7biKLancuuEt6SxUOFgAKG+aJk+/DMA3uVBQHgtAMKSg309Dr6zY3vCSdBYqPCwAlHenFgr+I4ArpbMUKhYAWQmolrTWf1LZuOlb0lmocLEAkAguFJTFAiAjBtWVUfreqm2bfkcB/A9AolgASNTphYJQ5s8UkJXOUyhYAPLLgjIZ6OftVmt55c4Nx6TzEAEsABQQXCiYXywA+aEAZJXaprWZP3Pr1ibpPETdsQBQoDRNnn6ZVviGAW6VzhJlLAD+Syu9P6V1bcXWhleksxCdCQsABRIXCvqLBcA/CYXmpGP9jxlvbPq2dBaic2EBoMDqtlDw7wGMkM4TJSwA3otBdWQUvjVj25Y/lM5C1BMsABR4XCjoPRYA79iAScN6vjN3YumsHTuapfMQ9RQLAIXG3skzRyrV9b+4UNA9FgD3NICspV+P23ppRUPDPuk8RL3FAkChs2dK5aUW8A0DM086S1ixAPSdApBSen8CWFG5bfNr0nmI+ooFgELr1ELBuwFMlM4SNiwAfZNU+nBaq9+bvnXTg9JZiNxiAaBQ40LBvmEB6J0ihfYU1L9xgR9FiZYOQOSGApxxWzf+0FZdFxij/tQAx6UzUXTElMr1V9Z9Iy66oJhf/hQ1vAJAkcKFgj3DKwDnpgAUW/r1hMaiqZs3vyedh8gPLAAUSVwoeG4sAGemAGSU3pWI68UVDQ2N0nmI/MQCQJHWNLnyBmjzTWUwSTpLkLAAfFlS6cNZo74ybfumR6SzEOUDCwBFngH03vKKxdqobxpgnHSeIGAB+Ewcqr1Y4++mN275S+ksRPnERYAUeQpwxm3euNZSXZcZo/4UALdjJdinFviNvLismF/+VIh4BYAKzsHy8sE5x/4Lo/C7AGzpPBIK+QqABkwG1qtWOrZoxvr1h6XzEElhAaCCtbu86hLbmL8yMNXSWfL+3gu0AGS1etuy9dKZmza9KZ2FSBoLABW8psnTZkPruwtpoWChFYCk0ofTKnfn9MbGJ6SzEAUFCwARCm+hYKEUgIRSLVljfbVie8O/SmchChoWAKJuDpaXpzqd2P+tlPkqgGLpPH6JegGwlcploB/s2LZpzSygSzoPURCxABCdQdQXCka1AFgnF/g9n9aZmsmN645I5yEKMhYAonOI6kLBKBaArFZvx1VsSeXWDW9JZyEKAxYAoh5omjxttlbqmwZqsnQWL0SpAKSg309Dr6zY3vCSdBaiMGEBIOqh0wsFlVHfADBeOo8bUSgACaA5ra0/rWzc9C3pLERhxAJA1EtRWCgY5gIQg+rKKH1v1bZNv6OAcL4JogBgASDqozAvFAxjAbCgTAb6ebvVWl65cwPHORO5xAJA5FIYFwqGqQAoAFmltmlt5s/curVJOg9RVLAAEHlkz5SK6y3g7jAsFAxLAUgrvT+ldW3F1oZXpLMQRQ0LAJGHDKD2llcsCfpCwaAXgKTSxxOO+qMZb2z6tnQWoqhiASDywb6qqqTTZv6bUuZ/AugnneeLgloAYlAdGYVvzdi25Q+lsxBFHQsAkY/2V1QMMp3qa0FbKBi0AmADJq30E6MGZGtK1q1rk85DVAhYAIjy4MDUqRc7jv3XQVkoGJQCoAFkLf163NZLKxoa9knnISokLABEebRnSsX1GuqbAKZI5pAuAApASun9CWBF5bbNr0l+FkSFigWAKM8+XSgI9Q8wKJHIIFkAkkofzsD8bsW2LQ+LBCAiACwARGJ2TJgQzyQyv6MM/hJ5XigoUQCKFNpTUP/GBX5EwcACQCRsf0XFIJPDHxmj/juAeD7Omc8CEFMql4Z+sP9FJXdOWLu2Iy8nJaLzYgEgCoh8LhTMRwFQAIot/XpCY9HUzZvf8/s9EVHvsAAQBcz+yRVVRuFuAzXDr3P4WQAUgIzSuxJxvbiioaHRr/dARO6wABAFkN8LBf0qAEmlD2eN+sq07ZseycsHRUR9xgJAFGB+LRT0ugDEodqLNf5ueuOWv5T4nIio91gAiELA64WCXhUAW6lchgv8iEKJBYAoRPZPrLjIWPpv3C4UdFsANGAysF610rFFM9avPyz9uRBR77EAEIXQ/inTKw3MP/Z1oaCbApDV6m3L1ktnbtr0pvTnQER9xwJAFFLdth7+ewClvXltXwpAUunDaZW7c3pj4xPS752I3GMBIAq5bgsFvw6gf09e05sCUATVUgzrqxXbG/5V+r0SkXdYAIgiYl9V1UB05P7YGPwBoIrO9Wt7UgBOL/Dr2LZpzSygS/r9EZG3WACIIqbbQsElOMuf8XMVAOvkAr/n0zpTM7lx3RHp90NE/mABIIqo/VOmVzoGd0Nh5hf/3dkKQFart1NW0aKpm9f/Sjo/EfmLBYAows62UPCLBSAF/X5W2SumbtvwsnRmIsoPFgCiAvDFhYKnC0ACaM5q+08qGhv+TTojEeUXCwBRATlYXj64E9bXDuRyKzXUPZWNm/5YOhMRyfj/AdltjWGMmBmhAAAAAElFTkSuQmCC;" parent="pLBHm1Zxr1Tqt-ue2brr-242" vertex="1">
          <mxGeometry x="38.179999999999836" y="14.115149907137173" width="52" height="52" as="geometry" />
        </mxCell>
        <mxCell id="pLBHm1Zxr1Tqt-ue2brr-244" value="" style="whiteSpace=wrap;html=1;aspect=fixed;fontSize=10;fillColor=none;" parent="pLBHm1Zxr1Tqt-ue2brr-242" vertex="1">
          <mxGeometry x="23.269999999999868" width="80" height="80" as="geometry" />
        </mxCell>
        <mxCell id="pLBHm1Zxr1Tqt-ue2brr-245" value="Reclassification Interface" style="text;fillColor=none;align=center;verticalAlign=top;spacingLeft=4;spacingRight=4;overflow=hidden;rotatable=0;points=[[0,0.5],[1,0.5]];portConstraint=eastwest;strokeColor=#B3B3B3;" parent="pLBHm1Zxr1Tqt-ue2brr-242" vertex="1">
          <mxGeometry x="-10" y="86.70734942955693" width="140" height="27.29265057044309" as="geometry" />
        </mxCell>
        <mxCell id="pLBHm1Zxr1Tqt-ue2brr-246" value="" style="endArrow=none;html=1;entryX=0.511;entryY=-0.003;entryDx=0;entryDy=0;entryPerimeter=0;" parent="1" source="pLBHm1Zxr1Tqt-ue2brr-237" target="pLBHm1Zxr1Tqt-ue2brr-2" edge="1">
          <mxGeometry width="50" height="50" relative="1" as="geometry">
            <mxPoint x="603.9088235294116" y="-5.882352941176578" as="sourcePoint" />
            <mxPoint x="610" y="110" as="targetPoint" />
          </mxGeometry>
        </mxCell>
        <mxCell id="pLBHm1Zxr1Tqt-ue2brr-272" value="" style="endArrow=none;html=1;" parent="1" source="pLBHm1Zxr1Tqt-ue2brr-237" edge="1">
          <mxGeometry width="50" height="50" relative="1" as="geometry">
            <mxPoint x="20" y="-40" as="sourcePoint" />
            <mxPoint x="600" y="-550" as="targetPoint" />
          </mxGeometry>
        </mxCell>
        <mxCell id="yHjn-h_2_tOgC2ZjGUG4-20" value="&lt;font style=&quot;font-size: 20px&quot;&gt;NGINX Rate Limiting Proxy&lt;/font&gt;" style="rounded=0;whiteSpace=wrap;html=1;" parent="1" vertex="1">
          <mxGeometry x="400.01" y="1350" width="400" height="110" as="geometry" />
        </mxCell>
        <mxCell id="yHjn-h_2_tOgC2ZjGUG4-22" value="" style="endArrow=none;html=1;entryX=0.299;entryY=1.008;entryDx=0;entryDy=0;entryPerimeter=0;exitX=0.5;exitY=0;exitDx=0;exitDy=0;" parent="1" source="yHjn-h_2_tOgC2ZjGUG4-40" target="pLBHm1Zxr1Tqt-ue2brr-2" edge="1">
          <mxGeometry width="50" height="50" relative="1" as="geometry">
            <mxPoint x="42" y="390" as="sourcePoint" />
            <mxPoint x="350" y="410" as="targetPoint" />
            <Array as="points">
              <mxPoint x="40" y="360" />
              <mxPoint x="520" y="360" />
            </Array>
          </mxGeometry>
        </mxCell>
        <mxCell id="yHjn-h_2_tOgC2ZjGUG4-23" value="" style="endArrow=none;html=1;entryX=0.398;entryY=0.999;entryDx=0;entryDy=0;entryPerimeter=0;exitX=0.5;exitY=0;exitDx=0;exitDy=0;" parent="1" source="pLBHm1Zxr1Tqt-ue2brr-171" target="pLBHm1Zxr1Tqt-ue2brr-2" edge="1">
          <mxGeometry width="50" height="50" relative="1" as="geometry">
            <mxPoint x="310" y="520" as="sourcePoint" />
            <mxPoint x="360" y="470" as="targetPoint" />
            <Array as="points">
              <mxPoint x="312" y="410" />
              <mxPoint x="560" y="410" />
            </Array>
          </mxGeometry>
        </mxCell>
        <mxCell id="yHjn-h_2_tOgC2ZjGUG4-24" value="" style="endArrow=none;html=1;entryX=0.5;entryY=1;entryDx=0;entryDy=0;exitX=0.5;exitY=0;exitDx=0;exitDy=0;" parent="1" source="pLBHm1Zxr1Tqt-ue2brr-145" target="pLBHm1Zxr1Tqt-ue2brr-2" edge="1">
          <mxGeometry width="50" height="50" relative="1" as="geometry">
            <mxPoint x="600" y="430" as="sourcePoint" />
            <mxPoint x="603" y="231" as="targetPoint" />
          </mxGeometry>
        </mxCell>
        <mxCell id="yHjn-h_2_tOgC2ZjGUG4-25" value="" style="endArrow=none;html=1;exitX=0.5;exitY=0;exitDx=0;exitDy=0;entryX=0.6;entryY=1.006;entryDx=0;entryDy=0;entryPerimeter=0;" parent="1" source="pLBHm1Zxr1Tqt-ue2brr-202" target="pLBHm1Zxr1Tqt-ue2brr-2" edge="1">
          <mxGeometry width="50" height="50" relative="1" as="geometry">
            <mxPoint x="860" y="420" as="sourcePoint" />
            <mxPoint x="910" y="370" as="targetPoint" />
            <Array as="points">
              <mxPoint x="902" y="410" />
              <mxPoint x="640" y="410" />
            </Array>
          </mxGeometry>
        </mxCell>
        <mxCell id="yHjn-h_2_tOgC2ZjGUG4-26" value="" style="endArrow=none;html=1;exitX=0.5;exitY=0;exitDx=0;exitDy=0;entryX=0.699;entryY=1.012;entryDx=0;entryDy=0;entryPerimeter=0;" parent="1" source="pLBHm1Zxr1Tqt-ue2brr-187" target="pLBHm1Zxr1Tqt-ue2brr-2" edge="1">
          <mxGeometry width="50" height="50" relative="1" as="geometry">
            <mxPoint x="710" y="280" as="sourcePoint" />
            <mxPoint x="720" y="234" as="targetPoint" />
            <Array as="points">
              <mxPoint x="1182" y="360" />
              <mxPoint x="680" y="360" />
            </Array>
          </mxGeometry>
        </mxCell>
        <mxCell id="yHjn-h_2_tOgC2ZjGUG4-31" value="" style="endArrow=none;html=1;exitX=0;exitY=0.75;exitDx=0;exitDy=0;entryX=0.573;entryY=1.002;entryDx=0;entryDy=0;entryPerimeter=0;startArrow=block;startFill=1;" parent="1" source="yHjn-h_2_tOgC2ZjGUG4-20" target="pLBHm1Zxr1Tqt-ue2brr-298" edge="1">
          <mxGeometry width="50" height="50" relative="1" as="geometry">
            <mxPoint x="10" y="860" as="sourcePoint" />
            <mxPoint x="30" y="740" as="targetPoint" />
            <Array as="points">
              <mxPoint x="60" y="1433" />
            </Array>
          </mxGeometry>
        </mxCell>
        <mxCell id="yHjn-h_2_tOgC2ZjGUG4-33" value="" style="endArrow=none;html=1;entryX=0.574;entryY=1;entryDx=0;entryDy=0;entryPerimeter=0;exitX=1;exitY=0.25;exitDx=0;exitDy=0;endFill=0;startArrow=block;startFill=1;" parent="1" source="yHjn-h_2_tOgC2ZjGUG4-20" target="pLBHm1Zxr1Tqt-ue2brr-200" edge="1">
          <mxGeometry width="50" height="50" relative="1" as="geometry">
            <mxPoint x="801" y="1085" as="sourcePoint" />
            <mxPoint x="960" y="1030" as="targetPoint" />
            <Array as="points">
              <mxPoint x="920" y="1378" />
              <mxPoint x="921" y="1085" />
            </Array>
          </mxGeometry>
        </mxCell>
        <mxCell id="yHjn-h_2_tOgC2ZjGUG4-34" value="" style="endArrow=none;html=1;entryX=0.541;entryY=1.002;entryDx=0;entryDy=0;entryPerimeter=0;exitX=0;exitY=0.25;exitDx=0;exitDy=0;endFill=0;startArrow=block;startFill=1;" parent="1" source="yHjn-h_2_tOgC2ZjGUG4-20" target="pLBHm1Zxr1Tqt-ue2brr-169" edge="1">
          <mxGeometry width="50" height="50" relative="1" as="geometry">
            <mxPoint x="280" y="1040" as="sourcePoint" />
            <mxPoint x="330" y="990" as="targetPoint" />
            <Array as="points">
              <mxPoint x="320" y="1378" />
              <mxPoint x="320" y="1058" />
            </Array>
          </mxGeometry>
        </mxCell>
        <mxCell id="yHjn-h_2_tOgC2ZjGUG4-35" value="" style="endArrow=none;html=1;entryX=0.523;entryY=1.005;entryDx=0;entryDy=0;entryPerimeter=0;exitX=1;exitY=0.75;exitDx=0;exitDy=0;startArrow=block;startFill=1;" parent="1" source="yHjn-h_2_tOgC2ZjGUG4-20" target="pLBHm1Zxr1Tqt-ue2brr-185" edge="1">
          <mxGeometry width="50" height="50" relative="1" as="geometry">
            <mxPoint x="1180" y="920" as="sourcePoint" />
            <mxPoint x="1230" y="870" as="targetPoint" />
            <Array as="points">
              <mxPoint x="1185" y="1433" />
              <mxPoint x="1185" y="1110" />
            </Array>
          </mxGeometry>
        </mxCell>
        <mxCell id="yHjn-h_2_tOgC2ZjGUG4-36" value="" style="endArrow=none;html=1;entryX=0.5;entryY=1;entryDx=0;entryDy=0;endFill=0;startArrow=block;startFill=1;" parent="1" target="yHjn-h_2_tOgC2ZjGUG4-20" edge="1">
          <mxGeometry width="50" height="50" relative="1" as="geometry">
            <mxPoint x="600" y="1559" as="sourcePoint" />
            <mxPoint x="-340" y="670" as="targetPoint" />
          </mxGeometry>
        </mxCell>
        <mxCell id="yHjn-h_2_tOgC2ZjGUG4-43" value="" style="endArrow=none;html=1;entryX=0.51;entryY=1;entryDx=0;entryDy=0;entryPerimeter=0;startArrow=block;startFill=1;" parent="1" source="yHjn-h_2_tOgC2ZjGUG4-20" target="pLBHm1Zxr1Tqt-ue2brr-138" edge="1">
          <mxGeometry width="50" height="50" relative="1" as="geometry">
            <mxPoint x="580" y="900" as="sourcePoint" />
            <mxPoint x="600" y="800" as="targetPoint" />
          </mxGeometry>
        </mxCell>
        <mxCell id="cnmCpfoTb3ZLm3PdTzCf-2" value="" style="endArrow=none;html=1;entryX=-0.005;entryY=0.464;entryDx=0;entryDy=0;entryPerimeter=0;" parent="1" source="pLBHm1Zxr1Tqt-ue2brr-266" target="pLBHm1Zxr1Tqt-ue2brr-237" edge="1">
          <mxGeometry width="50" height="50" relative="1" as="geometry">
            <mxPoint x="240.1237100000003" y="-190.8800000000001" as="sourcePoint" />
            <mxPoint x="400" y="-190" as="targetPoint" />
          </mxGeometry>
        </mxCell>
        <mxCell id="cnmCpfoTb3ZLm3PdTzCf-4" value="" style="group" parent="1" vertex="1" connectable="0">
          <mxGeometry x="-550" y="-270" width="350" height="147.06" as="geometry" />
        </mxCell>
        <mxCell id="pLBHm1Zxr1Tqt-ue2brr-266" value="" style="rounded=0;whiteSpace=wrap;html=1;strokeColor=#B3B3B3;fillColor=#ffffff;align=center;" parent="cnmCpfoTb3ZLm3PdTzCf-4" vertex="1">
          <mxGeometry width="350" height="147.06" as="geometry" />
        </mxCell>
        <mxCell id="pLBHm1Zxr1Tqt-ue2brr-267" value="" style="group" parent="cnmCpfoTb3ZLm3PdTzCf-4" vertex="1" connectable="0">
          <mxGeometry x="110" y="14" width="122.35" height="120.50999999999999" as="geometry" />
        </mxCell>
        <mxCell id="pLBHm1Zxr1Tqt-ue2brr-268" value="Azure AD" style="text;fillColor=none;align=center;verticalAlign=top;spacingLeft=4;spacingRight=4;overflow=hidden;rotatable=0;points=[[0,0.5],[1,0.5]];portConstraint=eastwest;strokeColor=#B3B3B3;" parent="pLBHm1Zxr1Tqt-ue2brr-267" vertex="1">
          <mxGeometry y="93.44" width="122.35" height="27.07" as="geometry" />
        </mxCell>
        <mxCell id="pLBHm1Zxr1Tqt-ue2brr-269" value="" style="shape=image;aspect=fixed;image=data:image/svg+xml,PHN2ZyBpZD0ic3ZnMTAzNSIgeG1sbnM9Imh0dHA6Ly93d3cudzMub3JnLzIwMDAvc3ZnIiB2aWV3Qm94PSIwIDAgMzc0LjUgMzc3LjMiIHdpZHRoPSIyNDgxIiBoZWlnaHQ9IjI1MDAiPjxzdHlsZT4uc3Qwe2ZpbGw6IzAwYmVmMn0uc3Qxe2ZpbGw6I2ZmZjtzdHJva2U6I2ZmZjtzdHJva2Utd2lkdGg6MS4yMzU3O3N0cm9rZS1saW5lY2FwOnJvdW5kO3N0cm9rZS1saW5lam9pbjpyb3VuZH08L3N0eWxlPjxnIGlkPSJsYXllcjEiIHRyYW5zZm9ybT0idHJhbnNsYXRlKC0zOS4wMjIgLTc4LjExNSkiPjxnIGlkPSJnMTAxNiIgdHJhbnNmb3JtPSJ0cmFuc2xhdGUoLTYzLjk0NyAtODguMTc5KSI+PHBhdGggaWQ9InBhdGgxMDA4IiBjbGFzcz0ic3QwIiBkPSJNMjkwIDE2Ni4zYy40IDAgLjguNSAxLjQgMS40LjUuOCA0Mi42IDUxLjMgOTMuNiAxMTIuMiA1MSA2MC45IDkyLjYgMTExIDkyLjQgMTExLjMtLjEuMy00MC43IDMzLjYtOTAuMiA3My45cy05MS42IDc0LjYtOTMuNSA3Ni4yYy0zLjMgMi43LTMuNSAyLjgtNC43IDEuNi0uNy0uNy00Mi45LTM1LjItOTMuOC03Ni43UzEwMi44IDM5MC41IDEwMyAzOTBjLjItLjUgNDItNTAuNCA5My4xLTExMXM5Mi45LTExMC43IDkzLjEtMTExLjVjLjItLjguNS0xLjIuOC0xLjJ6Ii8+PHBhdGggaWQ9InBhdGg5MjMiIGNsYXNzPSJzdDEiIGQ9Ik0yODMuMSA0ODMuNmMtNS44LTIuMS0xMi44LTguMS0xNS43LTEzLjctMy42LTYuOS0zLjMtMTcuNy43LTI2LjMgMy4xLTYuNCAzLjEtNi42IDEuMS04LjEtMS4xLS44LTE0LjQtOC4yLTI5LjQtMTYuMy0xNS04LjEtMjguMS0xNS4yLTI5LTE1LjctMS4yLS43LTMuMiAwLTYuOCAyLjMtMTEuNyA3LjQtMjMuOSA2LjYtMzMuNS0yLjMtNi45LTYuNC04LjktMTAuOS04LjktMjAuMSAwLTguOSAxLjgtMTMuNSA3LjUtMTkuMiA3LjctNy43IDE4LTEwLjMgMjcuOS03IDUuNCAxLjggNS41IDEuOCA4LjktLjggNC0zIDM2LjEtMzIuMyA1MS42LTQ3bDEwLjctMTAuMi0zLjItNi43Yy02LjUtMTMuNS0zLjItMjguNSA4LjItMzcuNSA2LjItNC45IDEwLjgtNi40IDE5LjctNi40IDIwLjggMCAzNS4zIDIxLjggMjcuNSA0MS4zLTIuMSA1LjQtMi4xIDUuNS0uMSA4LjggMS43IDIuOSAzMC42IDM3LjggNDUuOSA1NS42IDIuNyAzLjEgNS43IDUuNiA2LjcgNS42czQuNC0xIDcuNi0yLjJjMTQuOS01LjkgMzAuNi43IDM2LjggMTUuNSA0IDkuNS41IDIyLjMtOCAzMC02IDUuNC0xMC40IDcuMS0xOC40IDcuMS01LjYgMC03LjctLjYtMTMuNi0zLjgtNC40LTIuNC03LjgtMy42LTkuMi0zLjItMi40LjYtMzkuMyAyNS45LTQ3LjUgMzIuNS01IDQuMS01LjQgNS42LTIuOCAxMS43IDIuNSA2IDIuMiAxNS40LS42IDIxLjMtMy4xIDYuNS0xMC44IDEzLTE3LjUgMTUtNi44IDEuOS0xMC45IDEuOS0xNi42LS4yem0xLjctMTEwLjJ2LTU3bC0zLjItNC40Yy0xLjgtMi40LTMuNS00LjQtMy44LTQuNC0xLjMgMC02NS45IDU4LjctNjUuOSA1OS45IDAgLjMgMSAzLjMgMi4yIDYuNSAxLjIgMy4zIDIuMSA4IDIgMTAuNy0uMSAyLjctLjEgNS43LS4xIDYuNy4xIDIuMyAyMS43IDE2LjEgNTQuMSAzNC44IDguOSA1LjIgMTIgNi41IDEzLjEgNS42IDEuMy0xLjEgMS42LTEyLjIgMS42LTU4LjR6bTI3LjQgNTAuNGM0Mi44LTI2LjkgNTAuOC0zMi4zIDUxLjMtMzQuMy4zLTEuMi43LTUuOS44LTEwLjZsLjMtOC40LTIxLjgtMjUuOWMtMjMuNC0yNy43LTMyLTM3LjEtMzQtMzcuMS0uNyAwLTQuMiAyLTcuOCA0LjRsLTYuNiA0LjQuMyA1Ni45Yy4zIDUxIC43IDU5LjYgMi42IDU5LjYuMi4xIDctNCAxNC45LTl6Ii8+PC9nPjwvZz48L3N2Zz4=;" parent="pLBHm1Zxr1Tqt-ue2brr-267" vertex="1">
          <mxGeometry x="27.979999999999876" y="6.560000000000002" width="66.37" height="66.88" as="geometry" />
        </mxCell>
        <mxCell id="pLBHm1Zxr1Tqt-ue2brr-270" value="" style="whiteSpace=wrap;html=1;aspect=fixed;fontSize=10;fillColor=none;" parent="pLBHm1Zxr1Tqt-ue2brr-267" vertex="1">
          <mxGeometry x="21.169999999999874" width="80" height="80" as="geometry" />
        </mxCell>
        <mxCell id="cnmCpfoTb3ZLm3PdTzCf-7" value="&lt;span style=&quot;font-size: 14px&quot;&gt;Procurement&lt;/span&gt;" style="text;html=1;strokeColor=none;fillColor=none;align=center;verticalAlign=middle;whiteSpace=wrap;rounded=0;rotation=-45;" parent="1" vertex="1">
          <mxGeometry x="1019.9985111207344" y="439.9999999999999" width="71.72675628059433" height="24.40933564305445" as="geometry" />
        </mxCell>
        <mxCell id="BS5tUcMJ9vU3R2Ehxdbu-1" value="" style="aspect=fixed;pointerEvents=1;shadow=0;dashed=0;html=1;strokeColor=none;labelPosition=center;verticalLabelPosition=bottom;verticalAlign=top;align=center;shape=mxgraph.mscae.enterprise.lock;fontSize=10;fillColor=#B3B3B3;" parent="1" vertex="1">
          <mxGeometry x="780" y="220" width="31.2" height="40" as="geometry" />
        </mxCell>
        <mxCell id="JkKGlya94b-ltPTYIOOB-12" value="" style="group" parent="1" vertex="1" connectable="0">
          <mxGeometry x="-110" y="400" width="296.28999999999996" height="322.98" as="geometry" />
        </mxCell>
        <mxCell id="pLBHm1Zxr1Tqt-ue2brr-297" value="" style="group" parent="JkKGlya94b-ltPTYIOOB-12" vertex="1" connectable="0">
          <mxGeometry y="22.980000000000018" width="296.28999999999996" height="300" as="geometry" />
        </mxCell>
        <mxCell id="pLBHm1Zxr1Tqt-ue2brr-298" value="" style="verticalLabelPosition=middle;verticalAlign=middle;html=1;shape=mxgraph.basic.polygon;polyCoords=[[0.25,0],[0.75,0],[1,0.25],[1,0.75],[0.75,1],[0.25,1],[0,0.75],[0,0.25]];polyline=0;fillColor=#ffffff;fontSize=12;align=center;labelPosition=center;" parent="pLBHm1Zxr1Tqt-ue2brr-297" vertex="1">
          <mxGeometry width="296.29" height="300" as="geometry" />
        </mxCell>
        <mxCell id="cnmCpfoTb3ZLm3PdTzCf-25" value="" style="html=1;dashed=0;whitespace=wrap;strokeColor=#ffffff;points=[[0.005,0.63,0],[0.1,0.2,0],[0.9,0.2,0],[0.5,0,0],[0.995,0.63,0],[0.72,0.99,0],[0.5,1,0],[0.28,0.99,0]];shape=mxgraph.kubernetes.icon;prIcon=ing;fillColor=#B3B3B3;" parent="pLBHm1Zxr1Tqt-ue2brr-297" vertex="1">
          <mxGeometry x="100.48999999999998" y="87.01999999999998" width="40" height="36" as="geometry" />
        </mxCell>
        <mxCell id="RwiRo492WmUTAyVfWBXa-1" value="" style="group" parent="pLBHm1Zxr1Tqt-ue2brr-297" vertex="1" connectable="0">
          <mxGeometry x="148.14000000000004" y="28.019999999999982" width="122.35" height="97.07" as="geometry" />
        </mxCell>
        <mxCell id="RwiRo492WmUTAyVfWBXa-2" value="Ironhide" style="text;fillColor=none;align=center;verticalAlign=top;spacingLeft=4;spacingRight=4;overflow=hidden;rotatable=0;points=[[0,0.5],[1,0.5]];portConstraint=eastwest;strokeColor=#B3B3B3;" parent="RwiRo492WmUTAyVfWBXa-1" vertex="1">
          <mxGeometry y="71.74739130434781" width="122.34999999999997" height="25.32260869565217" as="geometry" />
        </mxCell>
        <mxCell id="RwiRo492WmUTAyVfWBXa-3" value="" style="ellipse;whiteSpace=wrap;html=1;aspect=fixed;fillColor=none;" parent="RwiRo492WmUTAyVfWBXa-1" vertex="1">
          <mxGeometry x="30.23615031178208" width="64.24680013127666" height="64.24680013127666" as="geometry" />
        </mxCell>
        <mxCell id="RwiRo492WmUTAyVfWBXa-4" value="" style="outlineConnect=0;dashed=0;verticalLabelPosition=bottom;verticalAlign=top;align=center;html=1;shape=mxgraph.aws3.resources;gradientColor=none;fillColor=#E6E6E6;" parent="RwiRo492WmUTAyVfWBXa-1" vertex="1">
          <mxGeometry x="48.18642526117431" y="16.878835272128264" width="28.34417652850441" height="36.100633680537875" as="geometry" />
        </mxCell>
        <mxCell id="cnmCpfoTb3ZLm3PdTzCf-28" value="" style="endArrow=none;html=1;entryX=0.5;entryY=1;entryDx=0;entryDy=0;entryPerimeter=0;exitX=-0.001;exitY=0.405;exitDx=0;exitDy=0;exitPerimeter=0;" parent="pLBHm1Zxr1Tqt-ue2brr-297" source="pLBHm1Zxr1Tqt-ue2brr-305" target="cnmCpfoTb3ZLm3PdTzCf-25" edge="1">
          <mxGeometry width="50" height="50" relative="1" as="geometry">
            <mxPoint x="108.13999999999999" y="177.01999999999998" as="sourcePoint" />
            <mxPoint x="158.14" y="127.01999999999998" as="targetPoint" />
            <Array as="points">
              <mxPoint x="120.13999999999999" y="151.01999999999998" />
            </Array>
          </mxGeometry>
        </mxCell>
        <mxCell id="cnmCpfoTb3ZLm3PdTzCf-29" value="" style="endArrow=none;html=1;entryX=0;entryY=0.5;entryDx=0;entryDy=0;exitX=0.847;exitY=0.208;exitDx=0;exitDy=0;exitPerimeter=0;" parent="pLBHm1Zxr1Tqt-ue2brr-297" source="cnmCpfoTb3ZLm3PdTzCf-25" target="RwiRo492WmUTAyVfWBXa-3" edge="1">
          <mxGeometry width="50" height="50" relative="1" as="geometry">
            <mxPoint x="108.13999999999999" y="97.01999999999998" as="sourcePoint" />
            <mxPoint x="158.14" y="47.01999999999998" as="targetPoint" />
            <Array as="points">
              <mxPoint x="134.14" y="60.01999999999998" />
            </Array>
          </mxGeometry>
        </mxCell>
        <mxCell id="pLBHm1Zxr1Tqt-ue2brr-303" value="" style="group" parent="pLBHm1Zxr1Tqt-ue2brr-297" vertex="1" connectable="0">
          <mxGeometry x="168.14" y="125.09" width="122.34999999999991" height="97.07" as="geometry" />
        </mxCell>
        <mxCell id="pLBHm1Zxr1Tqt-ue2brr-304" value="notification-service" style="text;fillColor=none;align=center;verticalAlign=top;spacingLeft=4;spacingRight=4;overflow=hidden;rotatable=0;points=[[0,0.5],[1,0.5]];portConstraint=eastwest;strokeColor=#B3B3B3;" parent="pLBHm1Zxr1Tqt-ue2brr-303" vertex="1">
          <mxGeometry y="71.74739130434781" width="122.34999999999997" height="25.32260869565217" as="geometry" />
        </mxCell>
        <mxCell id="pLBHm1Zxr1Tqt-ue2brr-305" value="" style="ellipse;whiteSpace=wrap;html=1;aspect=fixed;fillColor=none;" parent="pLBHm1Zxr1Tqt-ue2brr-303" vertex="1">
          <mxGeometry x="30.236150311782126" width="64.24680013127666" height="64.24680013127666" as="geometry" />
        </mxCell>
        <mxCell id="pLBHm1Zxr1Tqt-ue2brr-306" value="" style="outlineConnect=0;dashed=0;verticalLabelPosition=bottom;verticalAlign=top;align=center;html=1;shape=mxgraph.aws3.resources;gradientColor=none;fillColor=#E6E6E6;" parent="pLBHm1Zxr1Tqt-ue2brr-303" vertex="1">
          <mxGeometry x="48.18642526117435" y="16.878835272128264" width="28.34417652850441" height="36.100633680537875" as="geometry" />
        </mxCell>
        <mxCell id="cnmCpfoTb3ZLm3PdTzCf-6" value="&lt;span style=&quot;font-size: 14px&quot;&gt;utility&lt;/span&gt;" style="text;html=1;strokeColor=none;fillColor=none;align=center;verticalAlign=middle;whiteSpace=wrap;rounded=0;rotation=-45;" parent="pLBHm1Zxr1Tqt-ue2brr-297" vertex="1">
          <mxGeometry x="-20.00148887926565" y="17.019999999999868" width="71.72675628059433" height="24.40933564305445" as="geometry" />
        </mxCell>
        <mxCell id="JkKGlya94b-ltPTYIOOB-18" value="" style="group" parent="pLBHm1Zxr1Tqt-ue2brr-297" vertex="1" connectable="0">
          <mxGeometry x="9.14" y="19.02000000000001" width="122.35" height="97.07" as="geometry" />
        </mxCell>
        <mxCell id="JkKGlya94b-ltPTYIOOB-19" value="email-service" style="text;fillColor=none;align=center;verticalAlign=top;spacingLeft=4;spacingRight=4;overflow=hidden;rotatable=0;points=[[0,0.5],[1,0.5]];portConstraint=eastwest;strokeColor=#B3B3B3;" parent="JkKGlya94b-ltPTYIOOB-18" vertex="1">
          <mxGeometry x="20" y="71.75" width="80" height="25.32" as="geometry" />
        </mxCell>
        <mxCell id="JkKGlya94b-ltPTYIOOB-20" value="" style="ellipse;whiteSpace=wrap;html=1;aspect=fixed;fillColor=none;" parent="JkKGlya94b-ltPTYIOOB-18" vertex="1">
          <mxGeometry x="30.236150311782126" width="64.24680013127666" height="64.24680013127666" as="geometry" />
        </mxCell>
        <mxCell id="JkKGlya94b-ltPTYIOOB-21" value="" style="outlineConnect=0;dashed=0;verticalLabelPosition=bottom;verticalAlign=top;align=center;html=1;shape=mxgraph.aws3.resources;gradientColor=none;fillColor=#E6E6E6;" parent="JkKGlya94b-ltPTYIOOB-18" vertex="1">
          <mxGeometry x="48.18642526117435" y="16.878835272128264" width="28.34417652850441" height="36.100633680537875" as="geometry" />
        </mxCell>
        <mxCell id="yHjn-h_2_tOgC2ZjGUG4-39" value="" style="group" parent="JkKGlya94b-ltPTYIOOB-12" vertex="1" connectable="0">
          <mxGeometry x="128.14" width="59" height="54.36" as="geometry" />
        </mxCell>
        <mxCell id="yHjn-h_2_tOgC2ZjGUG4-40" value="" style="ellipse;whiteSpace=wrap;html=1;aspect=fixed;fillColor=#ffffff;align=left;" parent="yHjn-h_2_tOgC2ZjGUG4-39" vertex="1">
          <mxGeometry width="44.11764705882353" height="44.11764705882353" as="geometry" />
        </mxCell>
        <mxCell id="yHjn-h_2_tOgC2ZjGUG4-41" value="" style="shape=flexArrow;endArrow=classic;html=1;strokeColor=none;fillColor=#C2C2C2;width=5;endWidth=11;endSize=4.33;rounded=1;" parent="yHjn-h_2_tOgC2ZjGUG4-39" edge="1">
          <mxGeometry x="-67.86176470588231" y="13.361580598342641" width="44.11764705882353" height="49.15960485041434" as="geometry">
            <mxPoint x="12.620473619644002" y="37.941383023549804" as="sourcePoint" />
            <mxPoint x="12.620473619644002" y="8.445620113301203" as="targetPoint" />
          </mxGeometry>
        </mxCell>
        <mxCell id="yHjn-h_2_tOgC2ZjGUG4-42" value="" style="shape=flexArrow;endArrow=classic;html=1;strokeColor=none;fillColor=#C2C2C2;width=5;endWidth=11;endSize=4.33;" parent="yHjn-h_2_tOgC2ZjGUG4-39" edge="1">
          <mxGeometry x="-67.86176470588231" y="13.361580598342641" width="44.11764705882353" height="49.15960485041434" as="geometry">
            <mxPoint x="30.267532443173394" y="8.445620113301203" as="sourcePoint" />
            <mxPoint x="30.267532443173394" y="37.941383023549804" as="targetPoint" />
          </mxGeometry>
        </mxCell>
        <mxCell id="JkKGlya94b-ltPTYIOOB-29" value="" style="endArrow=none;html=1;fontSize=11;entryX=0.5;entryY=1;entryDx=0;entryDy=0;" parent="JkKGlya94b-ltPTYIOOB-12" source="cnmCpfoTb3ZLm3PdTzCf-25" target="yHjn-h_2_tOgC2ZjGUG4-40" edge="1">
          <mxGeometry width="50" height="50" relative="1" as="geometry">
            <mxPoint x="70" as="sourcePoint" />
            <mxPoint x="120" y="-50" as="targetPoint" />
            <Array as="points">
              <mxPoint x="120" y="60" />
              <mxPoint x="150" y="60" />
            </Array>
          </mxGeometry>
        </mxCell>
        <mxCell id="JkKGlya94b-ltPTYIOOB-26" value="" style="endArrow=block;html=1;fontSize=11;entryX=0.677;entryY=0.997;entryDx=0;entryDy=0;entryPerimeter=0;exitX=0;exitY=0.5;exitDx=0;exitDy=0;exitPerimeter=0;endFill=1;" parent="1" source="pLBHm1Zxr1Tqt-ue2brr-169" target="pLBHm1Zxr1Tqt-ue2brr-298" edge="1">
          <mxGeometry width="50" height="50" relative="1" as="geometry">
            <mxPoint x="70" y="820" as="sourcePoint" />
            <mxPoint x="120" y="770" as="targetPoint" />
            <Array as="points">
              <mxPoint x="91" y="840" />
            </Array>
          </mxGeometry>
        </mxCell>
        <mxCell id="JkKGlya94b-ltPTYIOOB-28" value="" style="endArrow=none;html=1;fontSize=11;entryX=0.5;entryY=0;entryDx=0;entryDy=0;entryPerimeter=0;" parent="1" target="cnmCpfoTb3ZLm3PdTzCf-25" edge="1">
          <mxGeometry width="50" height="50" relative="1" as="geometry">
            <mxPoint x="-10" y="490" as="sourcePoint" />
            <mxPoint x="40" y="440" as="targetPoint" />
          </mxGeometry>
        </mxCell>
        <mxCell id="YxbTeeAqUJjRJBQtcxc5-1" value="" style="endArrow=none;html=1;rounded=0;fontColor=#FF0000;" parent="1" source="pLBHm1Zxr1Tqt-ue2brr-185" target="YxbTeeAqUJjRJBQtcxc5-3" edge="1">
          <mxGeometry width="50" height="50" relative="1" as="geometry">
            <mxPoint x="900" y="470" as="sourcePoint" />
            <mxPoint x="950" y="420" as="targetPoint" />
          </mxGeometry>
        </mxCell>
        <mxCell id="YxbTeeAqUJjRJBQtcxc5-3" value="Allocation SDK????" style="ellipse;whiteSpace=wrap;html=1;fillColor=#f8cecc;strokeColor=#b85450;" parent="1" vertex="1">
          <mxGeometry x="1155" y="-60" width="195" height="120" as="geometry" />
        </mxCell>
      </root>
    </mxGraphModel>
  </diagram>
  <diagram id="qI61S99RyElvAwaip7jS" name="Page-2">
    <mxGraphModel dx="1426" dy="1025" grid="1" gridSize="10" guides="1" tooltips="1" connect="1" arrows="1" fold="1" page="1" pageScale="1" pageWidth="827" pageHeight="1169" math="0" shadow="0">
      <root>
        <mxCell id="UEawK4rH5p6mzBUGu4JY-0" />
        <mxCell id="UEawK4rH5p6mzBUGu4JY-1" parent="UEawK4rH5p6mzBUGu4JY-0" />
        <mxCell id="KMoJa1nUixKSwYL_PBaQ-0" value="" style="group" vertex="1" connectable="0" parent="UEawK4rH5p6mzBUGu4JY-1">
          <mxGeometry x="320" y="490" width="296.28999999999996" height="320" as="geometry" />
        </mxCell>
        <mxCell id="UEawK4rH5p6mzBUGu4JY-29" value="" style="verticalLabelPosition=middle;verticalAlign=middle;html=1;shape=mxgraph.basic.polygon;polyCoords=[[0.25,0],[0.75,0],[1,0.25],[1,0.75],[0.75,1],[0.25,1],[0,0.75],[0,0.25]];polyline=0;fillColor=#ffffff;fontSize=12;align=center;labelPosition=center;" vertex="1" parent="KMoJa1nUixKSwYL_PBaQ-0">
          <mxGeometry y="20" width="296.29" height="300" as="geometry" />
        </mxCell>
        <mxCell id="UEawK4rH5p6mzBUGu4JY-35" value="" style="group" vertex="1" connectable="0" parent="KMoJa1nUixKSwYL_PBaQ-0">
          <mxGeometry x="130" width="59" height="44.11999999999999" as="geometry" />
        </mxCell>
        <mxCell id="UEawK4rH5p6mzBUGu4JY-36" value="" style="ellipse;whiteSpace=wrap;html=1;aspect=fixed;fillColor=#ffffff;align=left;" vertex="1" parent="UEawK4rH5p6mzBUGu4JY-35">
          <mxGeometry width="44.11764705882353" height="44.11764705882353" as="geometry" />
        </mxCell>
        <mxCell id="UEawK4rH5p6mzBUGu4JY-37" value="" style="shape=flexArrow;endArrow=classic;html=1;strokeColor=none;fillColor=#C2C2C2;width=5;endWidth=11;endSize=4.33;rounded=1;" edge="1" parent="UEawK4rH5p6mzBUGu4JY-35">
          <mxGeometry x="-67.86176470588231" y="13.361580598342641" width="44.11764705882353" height="49.15960485041434" as="geometry">
            <mxPoint x="12.620473619644002" y="37.941383023549804" as="sourcePoint" />
            <mxPoint x="12.620473619644002" y="8.445620113301203" as="targetPoint" />
          </mxGeometry>
        </mxCell>
        <mxCell id="UEawK4rH5p6mzBUGu4JY-38" value="" style="shape=flexArrow;endArrow=classic;html=1;strokeColor=none;fillColor=#C2C2C2;width=5;endWidth=11;endSize=4.33;" edge="1" parent="UEawK4rH5p6mzBUGu4JY-35">
          <mxGeometry x="-67.86176470588231" y="13.361580598342641" width="44.11764705882353" height="49.15960485041434" as="geometry">
            <mxPoint x="30.267532443173394" y="8.445620113301203" as="sourcePoint" />
            <mxPoint x="30.267532443173394" y="37.941383023549804" as="targetPoint" />
          </mxGeometry>
        </mxCell>
        <mxCell id="UEawK4rH5p6mzBUGu4JY-46" value="Database per each cell" style="text;fillColor=none;align=center;verticalAlign=top;spacingLeft=4;spacingRight=4;overflow=hidden;rotatable=0;points=[[0,0.5],[1,0.5]];portConstraint=eastwest;strokeColor=#B3B3B3;" vertex="1" parent="KMoJa1nUixKSwYL_PBaQ-0">
          <mxGeometry x="70" y="264.68000000000006" width="160" height="25.32" as="geometry" />
        </mxCell>
        <mxCell id="UEawK4rH5p6mzBUGu4JY-54" value="" style="outlineConnect=0;dashed=0;verticalLabelPosition=bottom;verticalAlign=top;align=center;html=1;shape=mxgraph.aws3.postgre_sql_instance;gradientColor=none;fillColor=#B3B3B3;" vertex="1" parent="KMoJa1nUixKSwYL_PBaQ-0">
          <mxGeometry x="34" y="90" width="60" height="63" as="geometry" />
        </mxCell>
        <mxCell id="UEawK4rH5p6mzBUGu4JY-55" value="" style="outlineConnect=0;dashed=0;verticalLabelPosition=bottom;verticalAlign=top;align=center;html=1;shape=mxgraph.aws3.postgre_sql_instance;gradientColor=none;fillColor=#B3B3B3;" vertex="1" parent="KMoJa1nUixKSwYL_PBaQ-0">
          <mxGeometry x="118.13999999999999" y="90" width="60" height="63" as="geometry" />
        </mxCell>
        <mxCell id="UEawK4rH5p6mzBUGu4JY-56" value="" style="outlineConnect=0;dashed=0;verticalLabelPosition=bottom;verticalAlign=top;align=center;html=1;shape=mxgraph.aws3.postgre_sql_instance;gradientColor=none;fillColor=#B3B3B3;" vertex="1" parent="KMoJa1nUixKSwYL_PBaQ-0">
          <mxGeometry x="200" y="90" width="60" height="63" as="geometry" />
        </mxCell>
        <mxCell id="UEawK4rH5p6mzBUGu4JY-57" value="" style="outlineConnect=0;dashed=0;verticalLabelPosition=bottom;verticalAlign=top;align=center;html=1;shape=mxgraph.aws3.postgre_sql_instance;gradientColor=none;fillColor=#B3B3B3;" vertex="1" parent="KMoJa1nUixKSwYL_PBaQ-0">
          <mxGeometry x="80" y="180" width="60" height="63" as="geometry" />
        </mxCell>
        <mxCell id="UEawK4rH5p6mzBUGu4JY-58" value="" style="outlineConnect=0;dashed=0;verticalLabelPosition=bottom;verticalAlign=top;align=center;html=1;shape=mxgraph.aws3.postgre_sql_instance;gradientColor=none;fillColor=#B3B3B3;" vertex="1" parent="KMoJa1nUixKSwYL_PBaQ-0">
          <mxGeometry x="170" y="180" width="60" height="63" as="geometry" />
        </mxCell>
        <mxCell id="5hUxQqfVBpBb19Mk98Hj-12" value="" style="group" vertex="1" connectable="0" parent="UEawK4rH5p6mzBUGu4JY-1">
          <mxGeometry x="570" y="160" width="122.35" height="97.07" as="geometry" />
        </mxCell>
        <mxCell id="5hUxQqfVBpBb19Mk98Hj-13" value="Ironhide" style="text;fillColor=none;align=center;verticalAlign=top;spacingLeft=4;spacingRight=4;overflow=hidden;rotatable=0;points=[[0,0.5],[1,0.5]];portConstraint=eastwest;strokeColor=#B3B3B3;" vertex="1" parent="5hUxQqfVBpBb19Mk98Hj-12">
          <mxGeometry y="71.74739130434781" width="122.34999999999997" height="25.32260869565217" as="geometry" />
        </mxCell>
        <mxCell id="5hUxQqfVBpBb19Mk98Hj-14" value="" style="ellipse;whiteSpace=wrap;html=1;aspect=fixed;fillColor=none;" vertex="1" parent="5hUxQqfVBpBb19Mk98Hj-12">
          <mxGeometry x="30.23615031178208" width="64.24680013127666" height="64.24680013127666" as="geometry" />
        </mxCell>
        <mxCell id="5hUxQqfVBpBb19Mk98Hj-15" value="" style="outlineConnect=0;dashed=0;verticalLabelPosition=bottom;verticalAlign=top;align=center;html=1;shape=mxgraph.aws3.resources;gradientColor=none;fillColor=#E6E6E6;" vertex="1" parent="5hUxQqfVBpBb19Mk98Hj-12">
          <mxGeometry x="48.18642526117431" y="16.878835272128264" width="28.34417652850441" height="36.100633680537875" as="geometry" />
        </mxCell>
        <mxCell id="Ty7gwqXcXtSvUiiZg1WR-6" value="" style="group" vertex="1" connectable="0" parent="UEawK4rH5p6mzBUGu4JY-1">
          <mxGeometry x="70" y="70" width="296.29" height="320" as="geometry" />
        </mxCell>
        <mxCell id="UEawK4rH5p6mzBUGu4JY-3" value="" style="verticalLabelPosition=middle;verticalAlign=middle;html=1;shape=mxgraph.basic.polygon;polyCoords=[[0.25,0],[0.75,0],[1,0.25],[1,0.75],[0.75,1],[0.25,1],[0,0.75],[0,0.25]];polyline=0;fillColor=#ffffff;fontSize=12;align=center;labelPosition=center;" vertex="1" parent="Ty7gwqXcXtSvUiiZg1WR-6">
          <mxGeometry y="20" width="296.29" height="300" as="geometry" />
        </mxCell>
        <mxCell id="UEawK4rH5p6mzBUGu4JY-4" value="" style="group" vertex="1" connectable="0" parent="Ty7gwqXcXtSvUiiZg1WR-6">
          <mxGeometry x="10" y="80" width="122.35" height="97.07" as="geometry" />
        </mxCell>
        <mxCell id="UEawK4rH5p6mzBUGu4JY-5" value="ancillary-meta-data" style="text;fillColor=none;align=center;verticalAlign=top;spacingLeft=4;spacingRight=4;overflow=hidden;rotatable=0;points=[[0,0.5],[1,0.5]];portConstraint=eastwest;strokeColor=#B3B3B3;" vertex="1" parent="UEawK4rH5p6mzBUGu4JY-4">
          <mxGeometry y="71.74739130434781" width="122.34999999999997" height="25.32260869565217" as="geometry" />
        </mxCell>
        <mxCell id="UEawK4rH5p6mzBUGu4JY-6" value="" style="ellipse;whiteSpace=wrap;html=1;aspect=fixed;fillColor=none;" vertex="1" parent="UEawK4rH5p6mzBUGu4JY-4">
          <mxGeometry x="30.23615031178208" width="64.24680013127666" height="64.24680013127666" as="geometry" />
        </mxCell>
        <mxCell id="UEawK4rH5p6mzBUGu4JY-7" value="" style="outlineConnect=0;dashed=0;verticalLabelPosition=bottom;verticalAlign=top;align=center;html=1;shape=mxgraph.aws3.resources;gradientColor=none;fillColor=#E6E6E6;" vertex="1" parent="UEawK4rH5p6mzBUGu4JY-4">
          <mxGeometry x="48.18642526117431" y="16.878835272128264" width="28.34417652850441" height="36.100633680537875" as="geometry" />
        </mxCell>
        <mxCell id="UEawK4rH5p6mzBUGu4JY-8" value="" style="pointerEvents=1;shadow=0;dashed=0;html=1;strokeColor=none;labelPosition=center;verticalLabelPosition=bottom;verticalAlign=top;align=center;shape=mxgraph.mscae.intune.intune_vpn_profiles;fillColor=#B3B3B3;" vertex="1" parent="UEawK4rH5p6mzBUGu4JY-4">
          <mxGeometry x="85" y="35.06999999999999" width="22" height="29.18" as="geometry" />
        </mxCell>
        <mxCell id="UEawK4rH5p6mzBUGu4JY-9" value="" style="group" vertex="1" connectable="0" parent="Ty7gwqXcXtSvUiiZg1WR-6">
          <mxGeometry x="130" width="59" height="44.11999999999999" as="geometry" />
        </mxCell>
        <mxCell id="UEawK4rH5p6mzBUGu4JY-10" value="" style="ellipse;whiteSpace=wrap;html=1;aspect=fixed;fillColor=#ffffff;align=left;" vertex="1" parent="UEawK4rH5p6mzBUGu4JY-9">
          <mxGeometry width="44.11764705882353" height="44.11764705882353" as="geometry" />
        </mxCell>
        <mxCell id="UEawK4rH5p6mzBUGu4JY-11" value="" style="shape=flexArrow;endArrow=classic;html=1;strokeColor=none;fillColor=#C2C2C2;width=5;endWidth=11;endSize=4.33;rounded=1;" edge="1" parent="UEawK4rH5p6mzBUGu4JY-9">
          <mxGeometry x="-67.86176470588231" y="13.361580598342641" width="44.11764705882353" height="49.15960485041434" as="geometry">
            <mxPoint x="12.620473619644002" y="37.941383023549804" as="sourcePoint" />
            <mxPoint x="12.620473619644002" y="8.445620113301203" as="targetPoint" />
          </mxGeometry>
        </mxCell>
        <mxCell id="UEawK4rH5p6mzBUGu4JY-12" value="" style="shape=flexArrow;endArrow=classic;html=1;strokeColor=none;fillColor=#C2C2C2;width=5;endWidth=11;endSize=4.33;" edge="1" parent="UEawK4rH5p6mzBUGu4JY-9">
          <mxGeometry x="-67.86176470588231" y="13.361580598342641" width="44.11764705882353" height="49.15960485041434" as="geometry">
            <mxPoint x="30.267532443173394" y="8.445620113301203" as="sourcePoint" />
            <mxPoint x="30.267532443173394" y="37.941383023549804" as="targetPoint" />
          </mxGeometry>
        </mxCell>
        <mxCell id="UEawK4rH5p6mzBUGu4JY-13" value="" style="aspect=fixed;pointerEvents=1;shadow=0;dashed=0;html=1;strokeColor=none;labelPosition=center;verticalLabelPosition=bottom;verticalAlign=top;align=center;shape=mxgraph.mscae.enterprise.lock;fontSize=10;fillColor=#B3B3B3;" vertex="1" parent="UEawK4rH5p6mzBUGu4JY-9">
          <mxGeometry x="34" y="24.75999999999999" width="19" height="24.36" as="geometry" />
        </mxCell>
        <mxCell id="UEawK4rH5p6mzBUGu4JY-14" value="" style="group" vertex="1" connectable="0" parent="Ty7gwqXcXtSvUiiZg1WR-6">
          <mxGeometry x="160" y="80" width="122.35" height="97.07" as="geometry" />
        </mxCell>
        <mxCell id="UEawK4rH5p6mzBUGu4JY-15" value="ancillary-master-data" style="text;fillColor=none;align=center;verticalAlign=top;spacingLeft=4;spacingRight=4;overflow=hidden;rotatable=0;points=[[0,0.5],[1,0.5]];portConstraint=eastwest;strokeColor=#B3B3B3;" vertex="1" parent="UEawK4rH5p6mzBUGu4JY-14">
          <mxGeometry y="71.74739130434781" width="122.34999999999997" height="25.32260869565217" as="geometry" />
        </mxCell>
        <mxCell id="UEawK4rH5p6mzBUGu4JY-16" value="" style="ellipse;whiteSpace=wrap;html=1;aspect=fixed;fillColor=none;" vertex="1" parent="UEawK4rH5p6mzBUGu4JY-14">
          <mxGeometry x="30.23615031178208" width="64.24680013127666" height="64.24680013127666" as="geometry" />
        </mxCell>
        <mxCell id="UEawK4rH5p6mzBUGu4JY-17" value="" style="outlineConnect=0;dashed=0;verticalLabelPosition=bottom;verticalAlign=top;align=center;html=1;shape=mxgraph.aws3.resources;gradientColor=none;fillColor=#E6E6E6;" vertex="1" parent="UEawK4rH5p6mzBUGu4JY-14">
          <mxGeometry x="48.18642526117431" y="16.878835272128264" width="28.34417652850441" height="36.100633680537875" as="geometry" />
        </mxCell>
        <mxCell id="UEawK4rH5p6mzBUGu4JY-18" value="" style="pointerEvents=1;shadow=0;dashed=0;html=1;strokeColor=none;labelPosition=center;verticalLabelPosition=bottom;verticalAlign=top;align=center;shape=mxgraph.mscae.intune.intune_vpn_profiles;fillColor=#B3B3B3;" vertex="1" parent="UEawK4rH5p6mzBUGu4JY-14">
          <mxGeometry x="85" y="35.06999999999999" width="22" height="29.18" as="geometry" />
        </mxCell>
        <mxCell id="UEawK4rH5p6mzBUGu4JY-19" value="" style="group" vertex="1" connectable="0" parent="Ty7gwqXcXtSvUiiZg1WR-6">
          <mxGeometry x="52.14999999999998" y="192.93" width="160" height="97.07" as="geometry" />
        </mxCell>
        <mxCell id="UEawK4rH5p6mzBUGu4JY-20" value="ancillary-customization-data" style="text;fillColor=none;align=center;verticalAlign=top;spacingLeft=4;spacingRight=4;overflow=hidden;rotatable=0;points=[[0,0.5],[1,0.5]];portConstraint=eastwest;strokeColor=#B3B3B3;" vertex="1" parent="UEawK4rH5p6mzBUGu4JY-19">
          <mxGeometry y="71.75" width="160" height="25.32" as="geometry" />
        </mxCell>
        <mxCell id="UEawK4rH5p6mzBUGu4JY-21" value="" style="ellipse;whiteSpace=wrap;html=1;aspect=fixed;fillColor=none;" vertex="1" parent="UEawK4rH5p6mzBUGu4JY-19">
          <mxGeometry x="44.236150311782126" width="64.24680013127666" height="64.24680013127666" as="geometry" />
        </mxCell>
        <mxCell id="UEawK4rH5p6mzBUGu4JY-22" value="" style="outlineConnect=0;dashed=0;verticalLabelPosition=bottom;verticalAlign=top;align=center;html=1;shape=mxgraph.aws3.resources;gradientColor=none;fillColor=#E6E6E6;" vertex="1" parent="UEawK4rH5p6mzBUGu4JY-19">
          <mxGeometry x="62.18642526117435" y="16.878835272128242" width="28.34417652850441" height="36.100633680537875" as="geometry" />
        </mxCell>
        <mxCell id="UEawK4rH5p6mzBUGu4JY-23" value="" style="pointerEvents=1;shadow=0;dashed=0;html=1;strokeColor=none;labelPosition=center;verticalLabelPosition=bottom;verticalAlign=top;align=center;shape=mxgraph.mscae.intune.intune_vpn_profiles;fillColor=#B3B3B3;" vertex="1" parent="UEawK4rH5p6mzBUGu4JY-19">
          <mxGeometry x="99" y="35.06999999999999" width="22" height="29.18" as="geometry" />
        </mxCell>
        <mxCell id="UEawK4rH5p6mzBUGu4JY-24" value="" style="group" vertex="1" connectable="0" parent="Ty7gwqXcXtSvUiiZg1WR-6">
          <mxGeometry x="210" y="192.93" width="69.23" height="77.48000000000002" as="geometry" />
        </mxCell>
        <mxCell id="UEawK4rH5p6mzBUGu4JY-25" value="" style="whiteSpace=wrap;html=1;aspect=fixed;fillColor=none;" vertex="1" parent="UEawK4rH5p6mzBUGu4JY-24">
          <mxGeometry x="13" width="40.1" height="40.1" as="geometry" />
        </mxCell>
        <mxCell id="UEawK4rH5p6mzBUGu4JY-26" value="" style="aspect=fixed;pointerEvents=1;shadow=0;dashed=0;html=1;strokeColor=none;labelPosition=center;verticalLabelPosition=bottom;verticalAlign=top;align=center;shape=mxgraph.mscae.enterprise.database_generic;fillColor=#B3B3B3;" vertex="1" parent="UEawK4rH5p6mzBUGu4JY-24">
          <mxGeometry x="38.9579263711496" y="19.995566265060233" width="24.041593469204617" height="32.486203175262744" as="geometry" />
        </mxCell>
        <mxCell id="UEawK4rH5p6mzBUGu4JY-27" value="postgraphile" style="text;strokeColor=none;fillColor=none;align=left;verticalAlign=top;spacingLeft=4;spacingRight=4;overflow=hidden;rotatable=0;points=[[0,0.5],[1,0.5]];portConstraint=eastwest;fontSize=10;" vertex="1" parent="UEawK4rH5p6mzBUGu4JY-24">
          <mxGeometry y="47.48000000000002" width="69.23" height="30" as="geometry" />
        </mxCell>
      </root>
    </mxGraphModel>
  </diagram>
</mxfile>
